<?xml version="1.0" standalone="no"?>
<!DOCTYPE svg PUBLIC "-//W3C//DTD SVG 1.1//EN" "http://www.w3.org/Graphics/SVG/1.1/DTD/svg11.dtd" >
<svg xmlns="http://www.w3.org/2000/svg">
<metadata></metadata>
<defs>
<font id="trottoirregular" horiz-adv-x="1843" >
<font-face units-per-em="2048" ascent="1638" descent="-410" />
<missing-glyph horiz-adv-x="716" />
<glyph horiz-adv-x="2048" />
<glyph horiz-adv-x="2048" />
<glyph unicode="&#xd;" horiz-adv-x="2048" />
<glyph unicode=" "  horiz-adv-x="716" />
<glyph unicode="&#x09;" horiz-adv-x="716" />
<glyph unicode="&#xa0;" horiz-adv-x="716" />
<glyph unicode="!" horiz-adv-x="757" d="M164 1434h430l-86 -918h-258zM193 0v373h372v-373h-372z" />
<glyph unicode="&#x22;" horiz-adv-x="1187" d="M164 1434h358l-57 -717h-244zM666 1434h358l-57 -717h-244z" />
<glyph unicode="#" horiz-adv-x="1546" d="M164 330v200h239l37 373h-276v201h297l33 330h200l-32 -330h301l32 330h201l-33 -330h219v-201h-239l-37 -373h276v-200h-297l-32 -330h-201l33 330h-301l-33 -330h-201l33 330h-219zM604 530h301l37 373h-301z" />
<glyph unicode="$" horiz-adv-x="1587" d="M205 0v358h860q3 0 8 0.5t17 4.5t21.5 10.5t17.5 21.5t8 35v72q0 3 -0.5 7.5t-4.5 17t-10.5 22t-21.5 17t-35 7.5h-860v861h465v143h286v-143h324v-287h-573q-3 0 -8 -0.5t-17 -4.5t-21.5 -10.5t-17.5 -21.5t-8 -35v-143q0 -3 0.5 -8t4.5 -17t10.5 -21.5t21.5 -17.5 t35 -8h716v-860h-467v-143h-286v143h-465z" />
<glyph unicode="%" horiz-adv-x="2119" d="M164 717v717h731v-717h-731zM422 975q0 -5 1 -12t12 -19t30 -12h215q5 0 12 1t19 12t12 30v244q0 5 -1 12t-12 19t-30 12h-215q-5 0 -12 -1t-19 -12t-12 -30v-244zM508 0l874 1434h215l-874 -1434h-215zM1225 0v717h731v-717h-731zM1483 258q0 -5 1 -12t12 -19t30 -12 h215q5 0 12 1t19 12t12 30v244q0 5 -1 12t-12 19t-30 12h-215q-5 0 -12 -1t-19 -12t-12 -30v-244z" />
<glyph unicode="&#x26;" horiz-adv-x="1802" d="M164 0v860h430v574h1003v-502h-286v143q0 3 -0.5 8t-4.5 17t-10.5 21.5t-21.5 17.5t-35 8h-143q-3 0 -8 -0.5t-17 -4.5t-21.5 -10.5t-17.5 -21.5t-8 -35v-114l272 -457l301 127v-258l-178 -76l178 -299h-487l-82 137l-319 -135h-545zM651 373q0 -3 0.5 -8t4.5 -17 t10.5 -21.5t21.5 -17.5t35 -8h100l84 37l-159 264h-25q-3 0 -8 -0.5t-17 -4.5t-21.5 -10.5t-17.5 -21.5t-8 -35v-157z" />
<glyph unicode="'" horiz-adv-x="686" d="M164 1434h358l-57 -717h-244z" />
<glyph unicode="(" horiz-adv-x="880" d="M205 -430v2007h573v-258h-215q-3 0 -7.5 -0.5t-17 -4.5t-22 -10.5t-17 -21.5t-7.5 -35v-1347q0 -3 0.5 -8t4 -17t10 -21.5t21.5 -17.5t35 -8h215v-258h-573z" />
<glyph unicode=")" horiz-adv-x="880" d="M102 -172h215q32 0 50 18t20 36l2 18v1347q0 32 -18 50t-36 20l-18 2h-215v258h574v-2007h-574v258z" />
<glyph unicode="*" horiz-adv-x="1239" d="M164 1024l65 205l312 -129l-27 334h213l-27 -334l310 129l65 -205l-325 -78l219 -254l-174 -125l-174 285l-177 -285l-172 125l220 254z" />
<glyph unicode="+" horiz-adv-x="1474" d="M164 430v287h430v430h287v-430h430v-287h-430v-430h-287v430h-430z" />
<glyph unicode="," horiz-adv-x="655" d="M82 -287l143 660h430l-286 -660h-287z" />
<glyph unicode="-" horiz-adv-x="1044" d="M164 430v287h717v-287h-717z" />
<glyph unicode="." horiz-adv-x="700" d="M164 0v373h373v-373h-373z" />
<glyph unicode="/" horiz-adv-x="702" d="M0 -143l430 1577h272l-430 -1577h-272z" />
<glyph unicode="0" horiz-adv-x="1628" d="M205 0v1434h1218v-1434h-1218zM635 430q0 -3 0.5 -8t4.5 -17t10.5 -21.5t21.5 -17.5t35 -8h358q3 0 8 0.5t17 4.5t21.5 10.5t17.5 21.5t8 35v645q0 3 -0.5 8t-4.5 17t-10.5 21.5t-21.5 17.5t-35 8h-358q-3 0 -8 -0.5t-17 -4.5t-21.5 -10.5t-17.5 -21.5t-8 -35v-645z" />
<glyph unicode="1" horiz-adv-x="1034" d="M41 1147v72l215 215h573v-1434h-573v1147h-215z" />
<glyph unicode="2" horiz-adv-x="1587" d="M184 0v317l789 615v143q0 32 -18 50t-36 20l-18 2h-358q-32 0 -50 -18t-20 -36l-2 -18v-143h-287v502h1219v-502l-717 -574v-71h717v-287h-1219z" />
<glyph unicode="3" horiz-adv-x="1566" d="M143 0v358h717q32 0 50 18t20 36l2 18v143q0 32 -18 50t-36 20l-18 2h-573v287h573q32 0 50 18t20 36l2 18v71q0 32 -18 50t-36 20l-18 2h-573v287h1075v-1434h-1219z" />
<glyph unicode="4" horiz-adv-x="1566" d="M143 215v430l645 789h574v-1434h-430v215h-789zM573 573h359v646l-359 -502v-144z" />
<glyph unicode="5" horiz-adv-x="1587" d="M205 0v358h860q32 0 50 18t20 36l2 18v72q0 20 -7.5 35t-18 21.5t-21 10t-18.5 3.5l-7 1h-860v861h1003v-287h-573v-287h788v-860h-1218z" />
<glyph unicode="6" horiz-adv-x="1628" d="M205 0v1434h1218v-287h-716q-32 0 -50 -18t-20 -36l-2 -18v-215h788v-860h-1218zM635 358q0 -3 0.5 -7.5t4.5 -17t10.5 -22t21.5 -17t35 -7.5h358q3 0 8 0.5t17 4t21.5 10t17.5 21.5t8 35v144q0 3 -0.5 7.5t-4.5 17t-10.5 22t-21.5 17t-35 7.5h-430v-215z" />
<glyph unicode="7" horiz-adv-x="1423" d="M102 932v502h1219v-287l-430 -1147h-471l446 1147h-477v-215h-287z" />
<glyph unicode="8" horiz-adv-x="1638" d="M174 0v745h1290v-745h-1290zM317 831v603h1004v-603h-1004zM604 358q0 -3 0.5 -7.5t4.5 -17t10.5 -22t21.5 -17t35 -7.5h287q3 0 7.5 0.5t17 4t22 10t17 21.5t7.5 35v144q0 3 -0.5 7.5t-4 17t-10 22t-21.5 17t-35 7.5h-287q-3 0 -8 -0.5t-17 -4t-21.5 -10t-17.5 -21.5 t-8 -35v-144zM676 1075q0 -3 0.5 -7.5t4.5 -17t10.5 -22t21.5 -17t35 -7.5h143q3 0 8 0.5t17 4t21.5 10t17.5 21.5t8 35v72q0 3 -0.5 8t-4.5 17t-10.5 21.5t-21.5 17.5t-35 8h-143q-3 0 -8 -0.5t-17 -4.5t-21.5 -10.5t-17.5 -21.5t-8 -35v-72z" />
<glyph unicode="9" horiz-adv-x="1628" d="M205 0v287h860q32 0 50 17.5t20 35.5l2 18v215h-932v861h1218v-1434h-1218zM635 932q0 -3 0.5 -8t4.5 -17t10.5 -21.5t21.5 -17.5t35 -8h430v215q0 3 -0.5 8t-4.5 17t-10.5 21.5t-21.5 17.5t-35 8h-358q-3 0 -8 -0.5t-17 -4.5t-21.5 -10.5t-17.5 -21.5t-8 -35v-143z" />
<glyph unicode=":" horiz-adv-x="700" d="M164 0v373h373v-373h-373zM164 774v373h373v-373h-373z" />
<glyph unicode=";" horiz-adv-x="696" d="M20 -287l144 660h430l-287 -660h-287zM164 774v373h373v-373h-373z" />
<glyph unicode="&#x3c;" horiz-adv-x="1226" d="M102 549v332l961 553v-332l-688 -387l688 -387v-332z" />
<glyph unicode="=" horiz-adv-x="1474" d="M164 143v287h1147v-287h-1147zM164 717v287h1147v-287h-1147z" />
<glyph unicode="&#x3e;" horiz-adv-x="1226" d="M164 -4v332l688 387l-688 387v332l960 -553v-332z" />
<glyph unicode="?" horiz-adv-x="1396" d="M102 1061v373h1090v-918h-846v258h344q3 0 8 0.5t17 4.5t21.5 10.5t17.5 21.5t8 35v143q0 3 -0.5 8t-4.5 17t-10.5 21.5t-21.5 17.5t-35 8h-588zM418 0v373h373v-373h-373z" />
<glyph unicode="@" d="M205 0v1434h1433v-1147h-473l-26 86h-291l-27 -86h-344l258 860h344l215 -717h129q3 0 8 0.5t17 4.5t21.5 10.5t17.5 21.5t8 35v717q0 3 -0.5 7.5t-4.5 17t-10.5 22t-21.5 17t-35 7.5h-1003q-3 0 -8 -0.5t-17 -4t-21.5 -10t-17.5 -21.5t-8 -35v-1004q0 -3 0.5 -8t4.5 -17 t10.5 -21.5t21.5 -17.5t35 -8h1218v-143h-1433zM899 545h188l-94 315z" />
<glyph unicode="A" horiz-adv-x="1638" d="M102 0l430 1434h574l430 -1434h-287l-43 143h-487l-43 -143h-574zM805 430h315l-157 526z" />
<glyph unicode="B" d="M205 0v1434h1290v-574h143v-860h-1433zM778 287h502q32 0 50 17.5t20 35.5l2 18v144q0 3 -0.5 7.5t-4.5 17t-10.5 22t-21.5 17t-35 7.5h-502v-286zM778 860h430v215q0 32 -18 50t-36 20l-17 2h-359v-287z" />
<glyph unicode="C" horiz-adv-x="1740" d="M205 0v1434h1147v-287h-502q-3 0 -8 -0.5t-17 -4.5t-21.5 -10.5t-17.5 -21.5t-8 -35v-573q0 -3 0.5 -8t4.5 -17t10.5 -21.5t21.5 -17.5t35 -8h788v-430h-1433z" />
<glyph unicode="D" d="M205 0v1434h1362q32 0 49.5 -18t19.5 -36l2 -18v-1290q0 -3 -0.5 -8t-4 -17t-10 -21.5t-21.5 -17.5t-35 -8h-1362zM778 430h502q3 0 8 0.5t17 4.5t21.5 10.5t17.5 21.5t8 35v573q0 3 -0.5 8t-4.5 17t-10.5 21.5t-21.5 17.5t-35 8h-502v-717z" />
<glyph unicode="E" horiz-adv-x="1781" d="M205 0v1434h1147v-287h-574v-215h717v-287h-717v-215h860v-430h-1433z" />
<glyph unicode="F" horiz-adv-x="1740" d="M205 0v1434h1147v-287h-574v-287h860v-430h-860v-430h-573z" />
<glyph unicode="G" horiz-adv-x="1802" d="M205 0v1434h1147v-287h-502q-3 0 -8 -0.5t-17 -4.5t-21.5 -10.5t-17.5 -21.5t-8 -35v-573q0 -3 0.5 -8t4.5 -17t10.5 -21.5t21.5 -17.5t35 -8h502v358h286v-788h-1433z" />
<glyph unicode="H" horiz-adv-x="1771" d="M205 0v1434h573v-502h502v502h287v-1434h-287v645h-502v-645h-573z" />
<glyph unicode="I" horiz-adv-x="983" d="M205 0v1434h573v-1434h-573z" />
<glyph unicode="J" horiz-adv-x="1740" d="M102 0v430h789q32 0 50 18t20 36l2 18v645h-574v287h1147v-1434h-1434z" />
<glyph unicode="K" horiz-adv-x="1740" d="M205 0v1434h573v-514l514 514l203 -203l-502 -500l645 -516v-215h-215l-645 516v-516h-573z" />
<glyph unicode="L" horiz-adv-x="1679" d="M205 0v1434h573v-1147h860v-287h-1433z" />
<glyph unicode="M" d="M205 0v1434h502l358 -430l358 430h215v-1434h-286v926l-287 -353l-287 353v-926h-573z" />
<glyph unicode="N" horiz-adv-x="1771" d="M205 0v1434h502l573 -502v502h287v-1434h-287v573l-502 431v-1004h-573z" />
<glyph unicode="O" d="M205 0v1434h1433v-1434h-1433zM778 502q0 -3 0.5 -8t4.5 -17t10.5 -21.5t21.5 -17.5t35 -8h430q3 0 8 0.5t17 4.5t21.5 10.5t17.5 21.5t8 35v573q0 3 -0.5 8t-4.5 17t-10.5 21.5t-21.5 17.5t-35 8h-430q-3 0 -8 -0.5t-17 -4.5t-21.5 -10.5t-17.5 -21.5t-8 -35v-573z" />
<glyph unicode="P" horiz-adv-x="1802" d="M205 0v1434h1433v-1004h-860v-430h-573zM778 717h502q32 0 50 17.5t20 35.5l2 18v287q0 3 -0.5 8t-4.5 17t-10.5 21.5t-21.5 17.5t-35 8h-502v-430z" />
<glyph unicode="Q" d="M205 0v1434h1433v-1434h-624l221 -287h-301l-221 287h-508zM778 502q0 -3 0.5 -8t4.5 -17t10.5 -21.5t21.5 -17.5t35 -8h430q3 0 8 0.5t17 4.5t21.5 10.5t17.5 21.5t8 35v573q0 3 -0.5 8t-4.5 17t-10.5 21.5t-21.5 17.5t-35 8h-430q-3 0 -8 -0.5t-17 -4.5t-21.5 -10.5 t-17.5 -21.5t-8 -35v-573z" />
<glyph unicode="R" horiz-adv-x="1822" d="M205 0v1434h1433v-861h-501l442 -573h-299l-442 573h-60v-573h-573zM778 860h502q32 0 50 18t20 36l2 18v143q0 3 -0.5 8t-4.5 17t-10.5 21.5t-21.5 17.5t-35 8h-502v-287z" />
<glyph unicode="S" horiz-adv-x="1802" d="M205 0v358h1075q3 0 8 0.5t17 4.5t21.5 10.5t17.5 21.5t8 35v72q0 3 -0.5 7.5t-4.5 17t-10.5 22t-21.5 17t-35 7.5h-1075v861h1290v-287h-645q-3 0 -8 -0.5t-17 -4.5t-21.5 -10.5t-17.5 -21.5t-8 -35v-143q0 -3 0.5 -8t4.5 -17t10.5 -21.5t21.5 -17.5t35 -8h788v-860 h-1433z" />
<glyph unicode="T" horiz-adv-x="1658" d="M41 1147v287h1577v-287h-502v-1147h-573v1147h-502z" />
<glyph unicode="U" d="M205 0v1434h573v-932q0 -3 0.5 -8t4.5 -17t10.5 -21.5t21.5 -17.5t35 -8h430q3 0 8 0.5t17 4.5t21.5 10.5t17.5 21.5t8 35v932h286v-1434h-1433z" />
<glyph unicode="V" horiz-adv-x="1638" d="M102 1434h574l287 -957l286 957h287l-430 -1434h-574z" />
<glyph unicode="W" d="M205 0v1434h287v-926l286 352l287 -352v926h573v-1434h-501l-359 430l-358 -430h-215z" />
<glyph unicode="X" horiz-adv-x="1638" d="M102 0l469 807l-469 627h359l268 -357l207 357h600l-469 -807l469 -627h-358l-269 356l-207 -356h-600z" />
<glyph unicode="Y" horiz-adv-x="1515" d="M20 1434h375l299 -488l258 488h502l-401 -746v-688h-574v688z" />
<glyph unicode="Z" horiz-adv-x="1802" d="M184 0v430l932 717h-932v287h1434v-287l-932 -717h932v-430h-1434z" />
<glyph unicode="[" horiz-adv-x="880" d="M205 -430v2007h573v-258h-286v-1491h286v-258h-573z" />
<glyph unicode="\" horiz-adv-x="702" d="M0 1434h272l430 -1577h-272z" />
<glyph unicode="]" horiz-adv-x="880" d="M102 -172h287v1491h-287v258h574v-2007h-574v258z" />
<glyph unicode="^" horiz-adv-x="1366" d="M102 231l447 715h268l447 -715h-359l-221 431l-223 -431h-359z" />
<glyph unicode="_" horiz-adv-x="1433" d="M0 0v287h1434v-287h-1434z" />
<glyph unicode="`" horiz-adv-x="991" d="M164 1720h377l286 -430h-333z" />
<glyph unicode="a" horiz-adv-x="1228" d="M41 0l344 1147h459l344 -1147h-287l-27 100h-290l-27 -100h-516zM655 358h148l-74 273z" />
<glyph unicode="b" horiz-adv-x="1474" d="M164 0v1147h1046v-445h101v-702h-1147zM651 258h330q32 0 50 18t20 36l2 18v43q0 3 -0.5 7.5t-4.5 17t-10.5 22t-21.5 17t-35 7.5h-330v-186zM651 702h301v115q0 32 -18 50t-36 20l-17 2h-230v-187z" />
<glyph unicode="c" horiz-adv-x="1392" d="M164 0v1147h917v-258h-358q-3 0 -8 -0.5t-17 -4.5t-21.5 -10.5t-17.5 -21.5t-8 -35v-373q0 -3 0.5 -7.5t4.5 -17t10.5 -22t21.5 -17t35 -7.5h588v-373h-1147z" />
<glyph unicode="d" horiz-adv-x="1474" d="M164 0v1147h1075q32 0 50 -18t20 -36l2 -18v-1003q0 -3 -0.5 -8t-4.5 -17t-10.5 -21.5t-21.5 -17.5t-35 -8h-1075zM651 373h344q3 0 8 0.5t17 4t21.5 10t17.5 21.5t8 35v373q0 3 -0.5 8t-4.5 17t-10.5 21.5t-21.5 17.5t-35 8h-344v-516z" />
<glyph unicode="e" horiz-adv-x="1413" d="M164 0v1147h917v-258h-430v-129h545v-258h-545v-129h660v-373h-1147z" />
<glyph unicode="f" horiz-adv-x="1392" d="M164 0v1147h917v-258h-430v-187h660v-372h-660v-330h-487z" />
<glyph unicode="g" horiz-adv-x="1433" d="M164 0v1147h917v-258h-358q-3 0 -8 -0.5t-17 -4.5t-21.5 -10.5t-17.5 -21.5t-8 -35v-373q0 -3 0.5 -7.5t4.5 -17t10.5 -22t21.5 -17t35 -7.5h330v258h258v-631h-1147z" />
<glyph unicode="h" horiz-adv-x="1417" d="M164 0v1147h487v-387h344v387h258v-1147h-258v502h-344v-502h-487z" />
<glyph unicode="i" horiz-adv-x="815" d="M164 0v1147h487v-1147h-487z" />
<glyph unicode="j" horiz-adv-x="1392" d="M82 0v373h588q20 0 35 7.5t21.5 17.5t10 20.5t3.5 17.5l1 8v445h-430v258h918v-1147h-1147z" />
<glyph unicode="k" horiz-adv-x="1372" d="M164 0v1147h487v-387l383 387l191 -172l-387 -402l473 -387v-186h-187l-473 373v-373h-487z" />
<glyph unicode="l" horiz-adv-x="1331" d="M164 0v1147h487v-889h660v-258h-1147z" />
<glyph unicode="m" horiz-adv-x="1474" d="M164 0v1147h430l258 -316l258 316h201v-1147h-258v688l-201 -229l-201 229v-688h-487z" />
<glyph unicode="n" horiz-adv-x="1417" d="M164 0v1147h430l401 -344v344h258v-1147h-258v459l-344 301v-760h-487z" />
<glyph unicode="o" horiz-adv-x="1474" d="M164 0v1147h1147v-1147h-1147zM651 444q0 -3 0.5 -7.5t4.5 -17t10.5 -22t21.5 -17t35 -7.5h258q3 0 8 0.5t17 4t21.5 10t17.5 21.5t8 35v373q0 3 -0.5 8t-4.5 17t-10.5 21.5t-21.5 17.5t-35 8h-258q-3 0 -8 -0.5t-17 -4.5t-21.5 -10.5t-17.5 -21.5t-8 -35v-373z" />
<glyph unicode="p" horiz-adv-x="1454" d="M164 0v1147h1147v-817h-660v-330h-487zM651 588h330q32 0 50 18t20 36l2 17v158q0 3 -0.5 8t-4.5 17t-10.5 21.5t-21.5 17.5t-35 8h-330v-301z" />
<glyph unicode="q" horiz-adv-x="1474" d="M164 0v1147h1147v-1147h-453l221 -287h-301l-221 287h-393zM653 444q0 -3 0.5 -7.5t4.5 -17t10.5 -22t21.5 -17t35 -7.5h258q3 0 8 0.5t17 4t21.5 10t17.5 21.5t8 35v373q0 3 -0.5 8t-4.5 17t-10.5 21.5t-21.5 17.5t-35 8h-258q-3 0 -8 -0.5t-17 -4.5t-21.5 -10.5 t-17.5 -21.5t-8 -35v-373z" />
<glyph unicode="r" horiz-adv-x="1464" d="M164 0v1147h1147v-703h-344l344 -444h-301l-344 444h-15v-444h-487zM651 702h330q32 0 50 18t20 36l2 18v43q0 3 -0.5 8t-4.5 17t-10.5 21.5t-21.5 17.5t-35 8h-330v-187z" />
<glyph unicode="s" horiz-adv-x="1454" d="M164 0v315h846q3 0 7.5 0.5t17 4.5t22 10.5t17 21.5t7.5 35q0 3 -0.5 8t-4 17t-10 21.5t-21.5 17.5t-35 8h-846v688h1032v-258h-502q-3 0 -7.5 -0.5t-17 -4.5t-22 -10.5t-17 -21.5t-7.5 -35v-29q0 -3 0.5 -7.5t4 -17t10 -22t21.5 -17t35 -7.5h617v-717h-1147z" />
<glyph unicode="t" horiz-adv-x="1343" d="M41 889v258h1262v-258h-388v-889h-487v889h-387z" />
<glyph unicode="u" horiz-adv-x="1474" d="M164 0v1147h487v-703q0 -3 0.5 -7.5t4.5 -17t10.5 -22t21.5 -17t35 -7.5h244q3 0 7.5 0.5t17 4t22 10t17 21.5t7.5 35v703h273v-1147h-1147z" />
<glyph unicode="v" horiz-adv-x="1228" d="M41 1147h516l172 -631l172 631h287l-344 -1147h-459z" />
<glyph unicode="w" horiz-adv-x="1474" d="M164 0v1147h258v-688l201 229l200 -229v688h488v-1147h-430l-258 315l-258 -315h-201z" />
<glyph unicode="x" horiz-adv-x="1269" d="M61 0l369 655l-369 492h316l188 -250l142 250h501l-368 -655l368 -492h-315l-188 250l-142 -250h-502z" />
<glyph unicode="y" horiz-adv-x="1228" d="M20 1147h316l223 -387l193 387h415l-301 -617v-530h-487v530z" />
<glyph unicode="z" horiz-adv-x="1433" d="M143 0v373l727 516h-727v258h1147v-258l-721 -516h721v-373h-1147z" />
<glyph unicode="{" horiz-adv-x="1064" d="M102 430v287h287v860h574v-258h-215q-3 0 -8 -0.5t-17 -4.5t-21.5 -10.5t-17.5 -21.5t-8 -35v-1347q0 -3 0.5 -8t4.5 -17t10.5 -21.5t21.5 -17.5t35 -8h215v-258h-574v860h-287z" />
<glyph unicode="|" horiz-adv-x="614" d="M164 -287v1721h287v-1721h-287z" />
<glyph unicode="}" horiz-adv-x="1064" d="M102 -172h215q32 0 50 18t20 36l2 18v1347q0 32 -18 50t-36 20l-18 2h-215v258h574v-860h287v-287h-287v-860h-574v258z" />
<glyph unicode="~" horiz-adv-x="1517" d="M164 358l186 430l674 -100l72 186l258 -57l-187 -430l-673 100l-72 -186z" />
<glyph unicode="&#xa1;" horiz-adv-x="757" d="M164 -287l86 918h258l86 -918h-430zM193 774v373h372v-373h-372z" />
<glyph unicode="&#xa2;" horiz-adv-x="1458" d="M205 143v1147h373v144h286v-144h273v-258h-430q-3 0 -8 -0.5t-17 -4t-21.5 -10t-17.5 -21.5t-8 -35v-373q0 -3 0.5 -8t4.5 -17t10.5 -21.5t21.5 -17.5t35 -8h587v-373h-430v-143h-286v143h-373z" />
<glyph unicode="&#xa3;" horiz-adv-x="1484" d="M164 0v358h143v215h-143v287h143v574h645v-287h-143q-3 0 -8 -0.5t-17 -4.5t-21.5 -10.5t-17.5 -21.5t-8 -35v-215h287v-287h-287v-215h645v-358h-1218z" />
<glyph unicode="&#xa5;" horiz-adv-x="1382" d="M61 1434h353l221 -488l194 488h451l-289 -717h203v-144h-215v-143h215v-143h-215v-287h-573v287h-216v143h216v143h-216v144h203z" />
<glyph unicode="&#xa6;" horiz-adv-x="614" d="M164 -287v789h287v-789h-287zM164 645v789h287v-789h-287z" />
<glyph unicode="&#xa7;" horiz-adv-x="1413" d="M205 -29h645q3 0 8 0.5t17 5t21.5 12.5t17.5 26t8 42v158h-717v1219h1003v-258h-645q-3 0 -7.5 -0.5t-17 -4.5t-22 -10.5t-17 -21.5t-7.5 -35v-172h716v-1219h-1003v258zM492 502q0 -3 0.5 -8t4 -17t10 -21.5t21.5 -17.5t35 -8h359v215q0 3 -0.5 8t-4.5 17t-10.5 21.5 t-21.5 17.5t-35 8h-358v-215z" />
<glyph unicode="&#xa8;" horiz-adv-x="1116" d="M164 1362v287h287v-287h-287zM666 1362v287h286v-287h-286z" />
<glyph unicode="&#xa9;" d="M205 0v1434h1433v-1434h-1433zM348 215q0 -3 0.5 -8t4.5 -17t10.5 -21.5t21.5 -17.5t35 -8h1003q3 0 8 0.5t17 4.5t21.5 10.5t17.5 21.5t8 35v1004q0 3 -0.5 7.5t-4.5 17t-10.5 22t-21.5 17t-35 7.5h-1003q-3 0 -8 -0.5t-17 -4t-21.5 -10t-17.5 -21.5t-8 -35v-1004z M492 287v860h688v-172h-301q-5 0 -12 -1t-19 -12t-12 -30v-344q0 -5 1 -12t12 -19t30 -12h473v-258h-860z" />
<glyph unicode="&#xaa;" horiz-adv-x="1187" d="M164 0v143h860v-143h-860zM164 287v143h860v-143h-860zM164 573l258 861h344l258 -861h-215l-21 76h-217l-20 -76h-387zM625 842h110l-55 205z" />
<glyph unicode="&#xab;" horiz-adv-x="1509" d="M0 573l569 574l203 -203l-371 -371l371 -370l-203 -203zM614 573l570 574l202 -203l-370 -371l370 -370l-202 -203z" />
<glyph unicode="&#xad;" horiz-adv-x="1044" d="M164 430v287h717v-287h-717z" />
<glyph unicode="&#xae;" d="M205 0v1434h1433v-1434h-1433zM348 215q0 -3 0.5 -8t4.5 -17t10.5 -21.5t21.5 -17.5t35 -8h1003q3 0 8 0.5t17 4.5t21.5 10.5t17.5 21.5t8 35v1004q0 3 -0.5 7.5t-4.5 17t-10.5 22t-21.5 17t-35 7.5h-1003q-3 0 -8 -0.5t-17 -4t-21.5 -10t-17.5 -21.5t-8 -35v-1004z M492 287v860h860v-516h-301l266 -344h-180l-267 344h-34v-344h-344zM836 803h301q19 0 30 10.5t12 21.5l1 11v86q0 5 -1 12t-12 19t-30 12h-301v-172z" />
<glyph unicode="&#xaf;" horiz-adv-x="1187" d="M164 1362v287h860v-287h-860z" />
<glyph unicode="&#xb0;" horiz-adv-x="901" d="M164 860v574h573v-574h-573zM307 1075q0 -3 0.5 -7.5t4.5 -17t10.5 -22t21.5 -17t35 -7.5h143q3 0 8 0.5t17 4t21.5 10t17.5 21.5t8 35v144q0 3 -0.5 7.5t-4.5 17t-10.5 22t-21.5 17t-35 7.5h-143q-3 0 -8 -0.5t-17 -4t-21.5 -10t-17.5 -21.5t-8 -35v-144z" />
<glyph unicode="&#xb2;" horiz-adv-x="1058" d="M164 573v191l473 369v86q0 19 -10.5 30t-21.5 12l-11 1h-215q-19 0 -30 -11t-12 -21l-1 -11v-86h-172v301h731v-301l-430 -345v-43h430v-172h-731z" />
<glyph unicode="&#xb3;" horiz-adv-x="1017" d="M123 573v215h430q19 0 30 11t12 21l1 11v87q0 19 -11 30t-21 12l-11 1h-344v172h344q19 0 30 10.5t12 21.5l1 11v43q0 19 -11 30t-21 12l-11 1h-344v172h645v-861h-731z" />
<glyph unicode="&#xb4;" horiz-adv-x="991" d="M164 1290l287 430h376l-329 -430h-334z" />
<glyph unicode="&#xb6;" horiz-adv-x="1474" d="M123 717v717h717v-1721h-287v1004h-430zM983 -287v1721h287v-1721h-287z" />
<glyph unicode="&#xb7;" horiz-adv-x="700" d="M164 387v373h373v-373h-373z" />
<glyph unicode="&#xb8;" horiz-adv-x="745" d="M0 -410l330 410h334l-287 -410h-377z" />
<glyph unicode="&#xb9;" horiz-adv-x="739" d="M102 1262v43l129 129h344v-861h-344v689h-129z" />
<glyph unicode="&#xba;" horiz-adv-x="1191" d="M164 0v143h860v-143h-860zM164 287v143h860v-143h-860zM168 573v861h860v-861h-860zM535 907q0 -6 1.5 -15t14.5 -23.5t37 -14.5h194q6 0 15 1.5t24 14.5t15 37v279q0 6 -1.5 15t-15 24.5t-37.5 15.5h-194q-2 0 -5.5 -0.5t-13 -3.5t-16.5 -8t-12.5 -16.5t-5.5 -26.5v-279 z" />
<glyph unicode="&#xbb;" horiz-adv-x="1509" d="M123 203l371 370l-371 371l203 203l569 -574l-569 -573zM737 203l371 370l-371 371l203 203l569 -574l-569 -573z" />
<glyph unicode="&#xbc;" horiz-adv-x="1929" d="M102 1262v43l129 129h344v-861h-344v689h-129zM360 0l875 1434h215l-875 -1434h-215zM1034 129v258l387 473h344v-860h-258v129h-473zM1292 344h215v387l-215 -301v-86z" />
<glyph unicode="&#xbd;" horiz-adv-x="2115" d="M102 1262v43l129 129h344v-861h-344v689h-129zM360 0l875 1434h215l-875 -1434h-215zM1221 0v190l473 369v86q0 19 -11 30t-21 12l-11 1h-215q-19 0 -30 -11t-12 -21l-1 -11v-86h-172v301h731v-301l-430 -344v-43h430v-172h-731z" />
<glyph unicode="&#xbe;" horiz-adv-x="2164" d="M123 573v215h430q19 0 30 11t12 21l1 11v87q0 19 -11 30t-21 12l-11 1h-344v172h344q19 0 30 10.5t12 21.5l1 11v43q0 19 -11 30t-21 12l-11 1h-344v172h645v-861h-731zM596 0l874 1434h216l-875 -1434h-215zM1270 129v258l387 473h344v-860h-258v129h-473zM1528 344h215 v387l-215 -301v-86z" />
<glyph unicode="&#xbf;" horiz-adv-x="1396" d="M205 -287v918h846v-258h-344q-3 0 -8 -0.5t-17 -4.5t-21.5 -10.5t-17.5 -21.5t-8 -35v-143q0 -3 0.5 -8t4.5 -17t10.5 -21.5t21.5 -17.5t35 -8h587v-373h-1089zM606 774v373h373v-373h-373z" />
<glyph unicode="&#xc0;" horiz-adv-x="1638" d="M102 0l430 1434h574l430 -1434h-287l-43 143h-487l-43 -143h-574zM322 2007h376l287 -430h-334zM805 430h315l-157 526z" />
<glyph unicode="&#xc1;" horiz-adv-x="1638" d="M102 0l430 1434h574l430 -1434h-287l-43 143h-487l-43 -143h-574zM666 1577l286 430h377l-330 -430h-333zM805 430h315l-157 526z" />
<glyph unicode="&#xc2;" horiz-adv-x="1638" d="M102 0l430 1434h574l430 -1434h-287l-43 143h-487l-43 -143h-574zM332 1577l344 430h287l344 -430h-344l-144 201l-143 -201h-344zM805 430h315l-157 526z" />
<glyph unicode="&#xc3;" horiz-adv-x="1638" d="M102 0l430 1434h574l430 -1434h-287l-43 143h-487l-43 -143h-574zM379 1630l92 377l473 -135q3 -1 8 -1.5t18 0t23.5 4.5t22 16t16.5 32l17 70l208 -56l-94 -374l-471 135q-3 1 -8 1.5t-18 0t-23.5 -4.5t-22 -16t-16.5 -32l-16 -70zM805 430h315l-157 526z" />
<glyph unicode="&#xc4;" horiz-adv-x="1638" d="M102 0l430 1434h574l430 -1434h-287l-43 143h-487l-43 -143h-574zM424 1649v286h287v-286h-287zM805 430h315l-157 526zM926 1649v286h286v-286h-286z" />
<glyph unicode="&#xc5;" horiz-adv-x="1638" d="M102 0l430 1434h574l430 -1434h-287l-43 143h-487l-43 -143h-574zM604 1577v430h430v-430h-430zM748 1792q0 -29 21 -50.5t50 -21.5t50.5 21.5t21.5 50.5t-21.5 50.5t-50.5 21.5t-50 -21.5t-21 -50.5zM805 430h315l-157 526z" />
<glyph unicode="&#xc6;" horiz-adv-x="2521" d="M41 0l831 1434h1219v-287h-573v-215h716v-287h-716v-215h860v-430h-1434v143h-477l-82 -143h-344zM631 430h313v551z" />
<glyph unicode="&#xc7;" horiz-adv-x="1740" d="M205 0v1434h1147v-287h-502q-3 0 -8 -0.5t-17 -4.5t-21.5 -10.5t-17.5 -21.5t-8 -35v-573q0 -3 0.5 -8t4.5 -17t10.5 -21.5t21.5 -17.5t35 -8h788v-430h-526l-287 -410h-376l329 410h-573z" />
<glyph unicode="&#xc8;" horiz-adv-x="1781" d="M205 0v1434h1147v-287h-574v-215h717v-287h-717v-215h860v-430h-1433zM473 2007h377l287 -430h-334z" />
<glyph unicode="&#xc9;" horiz-adv-x="1781" d="M205 0v1434h1147v-287h-574v-215h717v-287h-717v-215h860v-430h-1433zM653 1577l287 430h377l-330 -430h-334z" />
<glyph unicode="&#xca;" horiz-adv-x="1781" d="M205 0v1434h1147v-287h-574v-215h717v-287h-717v-215h860v-430h-1433zM403 1577l345 430h286l344 -430h-344l-143 201l-143 -201h-345z" />
<glyph unicode="&#xcb;" horiz-adv-x="1781" d="M205 0v1434h1147v-287h-574v-215h717v-287h-717v-215h860v-430h-1433zM496 1649v286h286v-286h-286zM997 1649v286h287v-286h-287z" />
<glyph unicode="&#xcc;" horiz-adv-x="983" d="M-18 2007h376l287 -430h-334zM205 0v1434h573v-1434h-573z" />
<glyph unicode="&#xcd;" horiz-adv-x="983" d="M205 0v1434h573v-1434h-573zM322 1577l286 430h377l-330 -430h-333z" />
<glyph unicode="&#xce;" horiz-adv-x="983" d="M4 1577l344 430h287l344 -430h-344l-143 201l-144 -201h-344zM205 0v1434h573v-1434h-573z" />
<glyph unicode="&#xcf;" horiz-adv-x="983" d="M98 1649v286h287v-286h-287zM205 0v1434h573v-1434h-573zM600 1649v286h287v-286h-287z" />
<glyph unicode="&#xd0;" d="M61 645v287h144v502h1362q32 0 49.5 -18t19.5 -36l2 -18v-1290q0 -3 -0.5 -8t-4 -17t-10 -21.5t-21.5 -17.5t-35 -8h-1362v645h-144zM778 430h502q3 0 8 0.5t17 4.5t21.5 10.5t17.5 21.5t8 35v573q0 3 -0.5 8t-4.5 17t-10.5 21.5t-21.5 17.5t-35 8h-502v-215h287v-287 h-287v-215z" />
<glyph unicode="&#xd1;" horiz-adv-x="1771" d="M205 0v1434h502l573 -502v502h287v-1434h-287v573l-502 431v-1004h-573zM446 1630l93 377l473 -135q3 -1 8 -1.5t18 0t23.5 4.5t22 16t16.5 32l16 70l209 -56l-94 -374l-471 135q-3 1 -8 1.5t-18 0t-23.5 -4.5t-22 -16t-16.5 -32l-17 -70z" />
<glyph unicode="&#xd2;" d="M205 0v1434h1433v-1434h-1433zM494 2007h376l287 -430h-334zM778 502q0 -3 0.5 -8t4.5 -17t10.5 -21.5t21.5 -17.5t35 -8h430q3 0 8 0.5t17 4.5t21.5 10.5t17.5 21.5t8 35v573q0 3 -0.5 8t-4.5 17t-10.5 21.5t-21.5 17.5t-35 8h-430q-3 0 -8 -0.5t-17 -4.5t-21.5 -10.5 t-17.5 -21.5t-8 -35v-573z" />
<glyph unicode="&#xd3;" d="M205 0v1434h1433v-1434h-1433zM733 1577l287 430h377l-330 -430h-334zM778 502q0 -3 0.5 -8t4.5 -17t10.5 -21.5t21.5 -17.5t35 -8h430q3 0 8 0.5t17 4.5t21.5 10.5t17.5 21.5t8 35v573q0 3 -0.5 8t-4.5 17t-10.5 21.5t-21.5 17.5t-35 8h-430q-3 0 -8 -0.5t-17 -4.5 t-21.5 -10.5t-17.5 -21.5t-8 -35v-573z" />
<glyph unicode="&#xd4;" d="M205 0v1434h1433v-1434h-1433zM434 1577l344 430h287l344 -430h-344l-143 201l-144 -201h-344zM778 502q0 -3 0.5 -8t4.5 -17t10.5 -21.5t21.5 -17.5t35 -8h430q3 0 8 0.5t17 4.5t21.5 10.5t17.5 21.5t8 35v573q0 3 -0.5 8t-4.5 17t-10.5 21.5t-21.5 17.5t-35 8h-430 q-3 0 -8 -0.5t-17 -4.5t-21.5 -10.5t-17.5 -21.5t-8 -35v-573z" />
<glyph unicode="&#xd5;" d="M205 0v1434h1433v-1434h-1433zM481 1630l92 377l474 -135q3 -1 8 -1.5t18 0t23.5 4.5t22 16t16.5 32l16 70l209 -56l-94 -374l-471 135q-3 1 -8 1.5t-18 0t-23.5 -4.5t-22 -16t-16.5 -32l-17 -70zM778 502q0 -3 0.5 -8t4.5 -17t10.5 -21.5t21.5 -17.5t35 -8h430 q3 0 8 0.5t17 4.5t21.5 10.5t17.5 21.5t8 35v573q0 3 -0.5 8t-4.5 17t-10.5 21.5t-21.5 17.5t-35 8h-430q-3 0 -8 -0.5t-17 -4.5t-21.5 -10.5t-17.5 -21.5t-8 -35v-573z" />
<glyph unicode="&#xd6;" d="M205 0v1434h1433v-1434h-1433zM526 1649v286h287v-286h-287zM778 502q0 -3 0.5 -8t4.5 -17t10.5 -21.5t21.5 -17.5t35 -8h430q3 0 8 0.5t17 4.5t21.5 10.5t17.5 21.5t8 35v573q0 3 -0.5 8t-4.5 17t-10.5 21.5t-21.5 17.5t-35 8h-430q-3 0 -8 -0.5t-17 -4.5t-21.5 -10.5 t-17.5 -21.5t-8 -35v-573zM1028 1649v286h287v-286h-287z" />
<glyph unicode="&#xd7;" horiz-adv-x="1339" d="M164 270l303 303l-303 304l203 202l303 -303l303 303l203 -202l-304 -304l304 -303l-203 -202l-303 303l-303 -303z" />
<glyph unicode="&#xd8;" d="M205 0v1434h1032l55 143h154l-55 -143h247v-1434h-796l-54 -143h-153l53 143h-483zM778 502q0 -3 0.5 -8t4.5 -17t10.5 -21.5t21.5 -17.5t35 -8h4l272 717h-276q-3 0 -8 -0.5t-17 -4.5t-21.5 -10.5t-17.5 -21.5t-8 -35v-573zM1008 430h272q3 0 8 0.5t17 4.5t21.5 10.5 t17.5 21.5t8 35v573q0 3 -0.5 8t-4.5 17t-10.5 21.5t-21.5 17.5t-35 8z" />
<glyph unicode="&#xd9;" d="M205 0v1434h573v-932q0 -3 0.5 -8t4.5 -17t10.5 -21.5t21.5 -17.5t35 -8h430q3 0 8 0.5t17 4.5t21.5 10.5t17.5 21.5t8 35v932h286v-1434h-1433zM494 2007h376l287 -430h-334z" />
<glyph unicode="&#xda;" d="M205 0v1434h573v-932q0 -3 0.5 -8t4.5 -17t10.5 -21.5t21.5 -17.5t35 -8h430q3 0 8 0.5t17 4.5t21.5 10.5t17.5 21.5t8 35v932h286v-1434h-1433zM733 1577l287 430h377l-330 -430h-334z" />
<glyph unicode="&#xdb;" d="M205 0v1434h573v-932q0 -3 0.5 -8t4.5 -17t10.5 -21.5t21.5 -17.5t35 -8h430q3 0 8 0.5t17 4.5t21.5 10.5t17.5 21.5t8 35v932h286v-1434h-1433zM434 1577l344 430h287l344 -430h-344l-143 201l-144 -201h-344z" />
<glyph unicode="&#xdc;" d="M205 0v1434h573v-932q0 -3 0.5 -8t4.5 -17t10.5 -21.5t21.5 -17.5t35 -8h430q3 0 8 0.5t17 4.5t21.5 10.5t17.5 21.5t8 35v932h286v-1434h-1433zM526 1649v286h287v-286h-287zM1028 1649v286h287v-286h-287z" />
<glyph unicode="&#xdd;" horiz-adv-x="1515" d="M20 1434h375l299 -488l258 488h502l-401 -746v-688h-574v688zM535 1577l286 430h377l-330 -430h-333z" />
<glyph unicode="&#xde;" horiz-adv-x="1822" d="M205 0v1434h573v-215h860v-1004h-860v-215h-573zM778 502h502q32 0 50 18t20 36l2 17v287q0 3 -0.5 8t-4.5 17t-10.5 21.5t-21.5 17.5t-35 8h-502v-430z" />
<glyph unicode="&#xdf;" horiz-adv-x="2908" d="M164 0v315h846q3 0 7.5 0.5t17 4.5t22 10.5t17 21.5t7.5 35q0 3 -0.5 8t-4 17t-10 21.5t-21.5 17.5t-35 8h-846v688h1032v-258h-502q-3 0 -7.5 -0.5t-17 -4.5t-22 -10.5t-17 -21.5t-7.5 -35v-29q0 -3 0.5 -7.5t4 -17t10 -22t21.5 -17t35 -7.5h617v-717h-1147zM1618 0v315 h846q3 0 7.5 0.5t17 4.5t22 10.5t17 21.5t7.5 35q0 3 -0.5 8t-4 17t-10 21.5t-21.5 17.5t-35 8h-846v688h1032v-258h-502q-3 0 -7.5 -0.5t-17 -4.5t-22 -10.5t-17 -21.5t-7.5 -35v-29q0 -3 0.5 -7.5t4 -17t10 -22t21.5 -17t35 -7.5h617v-717h-1147z" />
<glyph unicode="&#xe0;" horiz-adv-x="1228" d="M41 0l344 1147h459l344 -1147h-287l-27 100h-290l-27 -100h-516zM102 1720h377l287 -430h-334zM655 358h148l-74 273z" />
<glyph unicode="&#xe1;" horiz-adv-x="1228" d="M41 0l344 1147h459l344 -1147h-287l-27 100h-290l-27 -100h-516zM442 1290l287 430h377l-330 -430h-334zM655 358h148l-74 273z" />
<glyph unicode="&#xe2;" horiz-adv-x="1228" d="M41 0l344 1147h459l344 -1147h-287l-27 100h-290l-27 -100h-516zM127 1290l344 430h287l344 -430h-344l-144 201l-143 -201h-344zM655 358h148l-74 273z" />
<glyph unicode="&#xe3;" horiz-adv-x="1228" d="M41 0l344 1147h459l344 -1147h-287l-27 100h-290l-27 -100h-516zM174 1343l92 377l473 -135q3 -1 8 -1.5t18 0t23.5 4.5t22 16t16.5 32l17 70l209 -55l-95 -375l-471 135q-3 1 -8 1.5t-18 0t-23.5 -4.5t-22 -16t-16.5 -32l-16 -70zM655 358h148l-74 273z" />
<glyph unicode="&#xe4;" horiz-adv-x="1228" d="M41 0l344 1147h459l344 -1147h-287l-27 100h-290l-27 -100h-516zM219 1362v287h287v-287h-287zM655 358h148l-74 273zM721 1362v287h287v-287h-287z" />
<glyph unicode="&#xe5;" horiz-adv-x="1228" d="M41 0l344 1147h459l344 -1147h-287l-27 100h-290l-27 -100h-516zM399 1290v430h430v-430h-430zM543 1505q0 -29 21 -50t50 -21t50.5 21t21.5 50t-21.5 50.5t-50.5 21.5t-50 -21.5t-21 -50.5zM655 358h148l-74 273z" />
<glyph unicode="&#xe6;" horiz-adv-x="2013" d="M41 0l666 1147h974v-258h-430v-129h545v-258h-545v-129h660v-373h-1147v100h-344l-58 -100h-321zM567 358h197v344z" />
<glyph unicode="&#xe7;" horiz-adv-x="1392" d="M164 0v1147h917v-258h-358q-3 0 -8 -0.5t-17 -4.5t-21.5 -10.5t-17.5 -21.5t-8 -35v-373q0 -3 0.5 -7.5t4.5 -17t10.5 -22t21.5 -17t35 -7.5h588v-373h-326l-287 -410h-376l329 410h-487z" />
<glyph unicode="&#xe8;" horiz-adv-x="1413" d="M164 0v1147h917v-258h-430v-129h545v-258h-545v-129h660v-373h-1147zM276 1720h377l287 -430h-334z" />
<glyph unicode="&#xe9;" horiz-adv-x="1413" d="M164 0v1147h917v-258h-430v-129h545v-258h-545v-129h660v-373h-1147zM492 1290l286 430h377l-330 -430h-333z" />
<glyph unicode="&#xea;" horiz-adv-x="1413" d="M164 0v1147h917v-258h-430v-129h545v-258h-545v-129h660v-373h-1147zM219 1290l344 430h287l344 -430h-344l-143 201l-144 -201h-344z" />
<glyph unicode="&#xeb;" horiz-adv-x="1413" d="M164 0v1147h917v-258h-430v-129h545v-258h-545v-129h660v-373h-1147zM311 1362v287h287v-287h-287zM813 1362v287h287v-287h-287z" />
<glyph unicode="&#xec;" horiz-adv-x="815" d="M-102 1720h376l287 -430h-334zM164 0v1147h487v-1147h-487z" />
<glyph unicode="&#xed;" horiz-adv-x="815" d="M164 0v1147h487v-1147h-487zM233 1290l287 430h377l-330 -430h-334z" />
<glyph unicode="&#xee;" horiz-adv-x="815" d="M-80 1290l344 430h287l344 -430h-344l-143 201l-144 -201h-344zM164 0v1147h487v-1147h-487z" />
<glyph unicode="&#xef;" horiz-adv-x="815" d="M14 1362v287h287v-287h-287zM164 0v1147h487v-1147h-487zM516 1362v287h287v-287h-287z" />
<glyph unicode="&#xf0;" horiz-adv-x="1556" d="M61 487v287h144v373h1075q32 0 50 -18t20 -36l2 -18v-1003q0 -3 -0.5 -8t-4.5 -17t-10.5 -21.5t-21.5 -17.5t-35 -8h-1075v487h-144zM692 373h344q3 0 8 0.5t17 4t21.5 10t17.5 21.5t8 35v373q0 3 -0.5 8t-4.5 17t-10.5 21.5t-21.5 17.5t-35 8h-344v-115h215v-287h-215 v-114z" />
<glyph unicode="&#xf1;" horiz-adv-x="1417" d="M164 0v1147h430l401 -344v344h258v-1147h-258v459l-344 301v-760h-487zM268 1343l92 377l474 -135q3 -1 8 -1.5t18 0t23.5 4.5t22 16t16.5 32l16 70l209 -55l-94 -375l-471 135q-3 1 -8 1.5t-18 0t-23.5 -4.5t-22 -16t-16.5 -32l-17 -70z" />
<glyph unicode="&#xf2;" horiz-adv-x="1474" d="M164 0v1147h1147v-1147h-1147zM297 1720h377l287 -430h-334zM651 444q0 -3 0.5 -7.5t4.5 -17t10.5 -22t21.5 -17t35 -7.5h258q3 0 8 0.5t17 4t21.5 10t17.5 21.5t8 35v373q0 3 -0.5 8t-4.5 17t-10.5 21.5t-21.5 17.5t-35 8h-258q-3 0 -8 -0.5t-17 -4.5t-21.5 -10.5 t-17.5 -21.5t-8 -35v-373z" />
<glyph unicode="&#xf3;" horiz-adv-x="1474" d="M164 0v1147h1147v-1147h-1147zM530 1290l287 430h377l-330 -430h-334zM651 444q0 -3 0.5 -7.5t4.5 -17t10.5 -22t21.5 -17t35 -7.5h258q3 0 8 0.5t17 4t21.5 10t17.5 21.5t8 35v373q0 3 -0.5 8t-4.5 17t-10.5 21.5t-21.5 17.5t-35 8h-258q-3 0 -8 -0.5t-17 -4.5 t-21.5 -10.5t-17.5 -21.5t-8 -35v-373z" />
<glyph unicode="&#xf4;" horiz-adv-x="1474" d="M164 0v1147h1147v-1147h-1147zM250 1290l344 430h287l344 -430h-344l-144 201l-143 -201h-344zM651 444q0 -3 0.5 -7.5t4.5 -17t10.5 -22t21.5 -17t35 -7.5h258q3 0 8 0.5t17 4t21.5 10t17.5 21.5t8 35v373q0 3 -0.5 8t-4.5 17t-10.5 21.5t-21.5 17.5t-35 8h-258 q-3 0 -8 -0.5t-17 -4.5t-21.5 -10.5t-17.5 -21.5t-8 -35v-373z" />
<glyph unicode="&#xf5;" horiz-adv-x="1474" d="M164 0v1147h1147v-1147h-1147zM297 1343l92 377l473 -135q3 -1 8 -1.5t18 0t23.5 4.5t22 16t16.5 32l17 70l209 -55l-95 -375l-471 135q-3 1 -8 1.5t-18 0t-23.5 -4.5t-22 -16t-16.5 -32l-16 -70zM651 444q0 -3 0.5 -7.5t4.5 -17t10.5 -22t21.5 -17t35 -7.5h258 q3 0 8 0.5t17 4t21.5 10t17.5 21.5t8 35v373q0 3 -0.5 8t-4.5 17t-10.5 21.5t-21.5 17.5t-35 8h-258q-3 0 -8 -0.5t-17 -4.5t-21.5 -10.5t-17.5 -21.5t-8 -35v-373z" />
<glyph unicode="&#xf6;" horiz-adv-x="1474" d="M164 0v1147h1147v-1147h-1147zM342 1362v287h287v-287h-287zM651 444q0 -3 0.5 -7.5t4.5 -17t10.5 -22t21.5 -17t35 -7.5h258q3 0 8 0.5t17 4t21.5 10t17.5 21.5t8 35v373q0 3 -0.5 8t-4.5 17t-10.5 21.5t-21.5 17.5t-35 8h-258q-3 0 -8 -0.5t-17 -4.5t-21.5 -10.5 t-17.5 -21.5t-8 -35v-373zM844 1362v287h286v-287h-286z" />
<glyph unicode="&#xf7;" horiz-adv-x="1474" d="M164 430v287h1147v-287h-1147zM594 0v287h287v-287h-287zM594 860v287h287v-287h-287z" />
<glyph unicode="&#xf8;" horiz-adv-x="1474" d="M164 0v1147h807l55 143h154l-56 -143h187v-1147h-625l-53 -143h-154l53 143h-368zM653 444q0 -39 27 -59l192 504h-147q-3 0 -8 -0.5t-17 -4.5t-21.5 -10.5t-17.5 -21.5t-8 -35v-373zM829 373h154q3 0 8 0.5t17 4t21.5 10t17.5 21.5t8 35v373q0 42 -33 62z" />
<glyph unicode="&#xf9;" horiz-adv-x="1474" d="M164 0v1147h487v-703q0 -3 0.5 -7.5t4.5 -17t10.5 -22t21.5 -17t35 -7.5h244q3 0 7.5 0.5t17 4t22 10t17 21.5t7.5 35v703h273v-1147h-1147zM297 1720h377l287 -430h-334z" />
<glyph unicode="&#xfa;" horiz-adv-x="1474" d="M164 0v1147h487v-703q0 -3 0.5 -7.5t4.5 -17t10.5 -22t21.5 -17t35 -7.5h244q3 0 7.5 0.5t17 4t22 10t17 21.5t7.5 35v703h273v-1147h-1147zM530 1290l287 430h377l-330 -430h-334z" />
<glyph unicode="&#xfb;" horiz-adv-x="1474" d="M164 0v1147h487v-703q0 -3 0.5 -7.5t4.5 -17t10.5 -22t21.5 -17t35 -7.5h244q3 0 7.5 0.5t17 4t22 10t17 21.5t7.5 35v703h273v-1147h-1147zM250 1290l344 430h287l344 -430h-344l-144 201l-143 -201h-344z" />
<glyph unicode="&#xfc;" horiz-adv-x="1474" d="M164 0v1147h487v-703q0 -3 0.5 -7.5t4.5 -17t10.5 -22t21.5 -17t35 -7.5h244q3 0 7.5 0.5t17 4t22 10t17 21.5t7.5 35v703h273v-1147h-1147zM342 1362v287h287v-287h-287zM844 1362v287h286v-287h-286z" />
<glyph unicode="&#xfd;" horiz-adv-x="1228" d="M20 1147h316l223 -387l193 387h415l-301 -617v-530h-487v530zM371 1290l286 430h377l-329 -430h-334z" />
<glyph unicode="&#xfe;" horiz-adv-x="1464" d="M164 0v1147h487v-172h660v-803h-660v-172h-487zM651 430h330q32 0 50 18t20 36l2 18v143q0 3 -0.5 8t-4.5 17t-10.5 21.5t-21.5 17.5t-35 8h-330v-287z" />
<glyph unicode="&#xff;" horiz-adv-x="1228" d="M20 1147h316l223 -387l193 387h415l-301 -617v-530h-487v530zM168 1362v287h287v-287h-287zM670 1362v287h286v-287h-286z" />
<glyph unicode="&#x152;" horiz-adv-x="2641" d="M205 0v1434h2007v-287h-574v-215h717v-287h-717v-215h861v-430h-2294zM492 502q0 -32 18 -50t36 -20l17 -2h430q32 0 50 18t20 36l2 18v573q0 32 -18 50t-36 20l-18 2h-430q-32 0 -49.5 -18t-19.5 -36l-2 -18v-573z" />
<glyph unicode="&#x153;" horiz-adv-x="2072" d="M164 0v1147h1577v-258h-430v-129h544v-258h-544v-129h659v-373h-1806zM422 444q0 -20 7.5 -35t18 -21.5t21 -10t17.5 -3.5l8 -1h258q20 0 35 7.5t21.5 17.5t10 20.5t3.5 17.5l1 8v373q0 32 -17.5 50t-35.5 20l-18 2h-258q-32 0 -50 -18t-20 -36l-2 -18v-373z" />
<glyph unicode="&#x178;" horiz-adv-x="1515" d="M20 1434h375l299 -488l258 488h502l-401 -746v-688h-574v688zM299 1649v286h287v-286h-287zM801 1649v286h286v-286h-286z" />
<glyph unicode="&#x2c6;" horiz-adv-x="1302" d="M164 1290l344 430h287l344 -430h-344l-144 201l-143 -201h-344z" />
<glyph unicode="&#x2dc;" horiz-adv-x="1206" d="M164 1343l92 377l473 -135q3 -1 8 -1.5t18 0t23.5 4.5t22 16t16.5 32l17 70l208 -55l-94 -375l-471 135q-3 1 -8 1.5t-18 0t-23.5 -4.5t-22 -16t-16.5 -32l-16 -70z" />
<glyph unicode="&#x2000;" horiz-adv-x="1003" />
<glyph unicode="&#x2001;" horiz-adv-x="2007" />
<glyph unicode="&#x2002;" horiz-adv-x="1003" />
<glyph unicode="&#x2003;" horiz-adv-x="2007" />
<glyph unicode="&#x2004;" horiz-adv-x="669" />
<glyph unicode="&#x2005;" horiz-adv-x="501" />
<glyph unicode="&#x2006;" horiz-adv-x="334" />
<glyph unicode="&#x2007;" horiz-adv-x="334" />
<glyph unicode="&#x2008;" horiz-adv-x="250" />
<glyph unicode="&#x2009;" horiz-adv-x="401" />
<glyph unicode="&#x200a;" horiz-adv-x="111" />
<glyph unicode="&#x2010;" horiz-adv-x="1044" d="M164 430v287h717v-287h-717z" />
<glyph unicode="&#x2011;" horiz-adv-x="1044" d="M164 430v287h717v-287h-717z" />
<glyph unicode="&#x2012;" horiz-adv-x="1044" d="M164 430v287h717v-287h-717z" />
<glyph unicode="&#x2013;" horiz-adv-x="1515" d="M41 430v287h1434v-287h-1434z" />
<glyph unicode="&#x2014;" horiz-adv-x="2150" d="M0 430v287h2150v-287h-2150z" />
<glyph unicode="&#x2018;" horiz-adv-x="655" d="M0 774l287 660h286l-143 -660h-430z" />
<glyph unicode="&#x2019;" horiz-adv-x="655" d="M82 774l143 660h430l-286 -660h-287z" />
<glyph unicode="&#x201a;" horiz-adv-x="655" d="M82 -287l143 660h430l-286 -660h-287z" />
<glyph unicode="&#x201c;" horiz-adv-x="1171" d="M0 774l287 660h286l-143 -660h-430zM516 774l287 660h287l-144 -660h-430z" />
<glyph unicode="&#x201d;" horiz-adv-x="1171" d="M82 774l143 660h430l-286 -660h-287zM598 774l143 660h430l-286 -660h-287z" />
<glyph unicode="&#x201e;" horiz-adv-x="1171" d="M82 -287l143 660h430l-286 -660h-287zM598 -287l143 660h430l-286 -660h-287z" />
<glyph unicode="&#x2022;" horiz-adv-x="901" d="M164 287v573h573v-573h-573z" />
<glyph unicode="&#x2026;" horiz-adv-x="1816" d="M164 0v373h373v-373h-373zM721 0v373h373v-373h-373zM1280 0v373h373v-373h-373z" />
<glyph unicode="&#x202f;" horiz-adv-x="401" />
<glyph unicode="&#x2039;" horiz-adv-x="894" d="M0 573l569 574l203 -203l-371 -371l371 -370l-203 -203z" />
<glyph unicode="&#x203a;" horiz-adv-x="894" d="M123 203l371 370l-371 371l203 203l569 -574l-569 -573z" />
<glyph unicode="&#x205f;" horiz-adv-x="501" />
<glyph unicode="&#x20ac;" horiz-adv-x="1669" d="M164 573v144h143v143h-143v144h143v430h932v-287h-430q-3 0 -8 -0.5t-17 -4.5t-21.5 -10.5t-17.5 -21.5t-8 -35v-71h359v-144h-359v-143h359v-144h-359v-71q0 -3 0.5 -8t4.5 -17t10.5 -21.5t21.5 -17.5t35 -8h717v-430h-1219v573h-143z" />
<glyph unicode="&#x2122;" horiz-adv-x="2052" d="M82 1262v172h860v-172h-258v-689h-344v689h-258zM1028 573v861h301l215 -258l215 258h129v-861h-172v555l-172 -210l-172 210v-555h-344z" />
<glyph unicode="&#xe000;" horiz-adv-x="1146" d="M0 0v1147h1147v-1147h-1147z" />
<glyph unicode="&#xfb01;" horiz-adv-x="2207" d="M164 0v1147h917v-258h-430v-187h660v-372h-660v-330h-487zM1556 0v1147h488v-1147h-488z" />
<glyph unicode="&#xfb02;" horiz-adv-x="2723" d="M164 0v1147h917v-258h-430v-187h660v-372h-660v-330h-487zM1556 0v1147h488v-889h659v-258h-1147z" />
</font>
</defs>
</svg>
