<?xml version="1.0" encoding="utf-8"?>
<svg version="1.1"
	 xmlns="http://www.w3.org/2000/svg" xmlns:xlink="http://www.w3.org/1999/xlink" xmlns:a="http://ns.adobe.com/AdobeSVGViewerExtensions/3.0/"
	 x="0px" y="0px" width="100%" height="100%" viewBox="-0.262 -0.812 14 14" enable-background="new -0.262 -0.812 14 14"
	 xml:space="preserve">
<defs>
</defs>
<path id="Provence-Alpes-Cotes-Azur" fill="#DEDB00" stroke="#FFFFFF" stroke-width="0.5" stroke-linecap="round" stroke-linejoin="round" d="
	M13.331,5.347c-0.695-0.435-1.514-0.394-2.214-0.761c-0.351-0.187-0.57-0.518-0.711-0.873c-0.289-0.724-0.314-1.013,0.348-1.37
	c-0.381-0.475-0.869-0.831-1.274-1.282C8.941,0.459,9.037,0.006,8.106,0.395C7.69,0.571,8.384,1.098,8.003,1.487
	C8.012,1.479,8.02,1.595,8.015,1.583c-0.68-0.004-1.34,0.227-1.928,0.566C5.645,2.608,5.43,2.835,5.528,3.514
	C5.351,3.547,4.97,3.493,4.757,3.556C4.701,3.953,5.09,3.836,4.621,3.948c0.577,0.335,1.094,0.786,1.024,1.428
	c-0.67,0.165-1.74-0.066-1.946-0.828C3.326,4.78,2.829,4.771,2.43,5.036C2.265,4.85,1.965,4.676,1.762,4.523
	c0.664,1.084,0.242,2.25-0.022,3.36C0.885,8.25,0.956,8.466,0.25,9.09c0.021-0.008,0.022-0.008,0.004,0
	c0.37-0.003,0.721,0.025,1.057,0.158c0.397,0.157,0.964,0.76,1.46,0.347c0.104-0.091-0.275-0.189-0.063-0.182
	C2.535,9.471,2.625,9.132,2.633,9.099c0.091,0.141,0.435,0.39,0.569,0.248C2.877,9.686,3.948,9.694,4.009,9.69
	c0.527-0.17,0.67,0.149,0.527,0.579c0.066,0.009,1.067,0.123,1.034,0.174c0.513-0.054,0.675,0.761,1.225,0.45
	c-0.141,0.083-0.124-0.021-0.091-0.099c-0.033,0-0.132,0.016-0.054-0.083c0.021,0.059,0.153-0.009,0.153-0.009
	c0.108,0.062,0.226,0.112,0.342,0.161c0.108,0.076,0.422,0.307,0.6,0.253c-0.178-0.069-0.054-0.372,0.076-0.418
	c0.17-0.003,0.808,0.116,0.63-0.074c-0.075-0.409,1.658-0.045,0.988-0.832c0.009,0.059-0.042,0.059-0.157-0.007
	c-0.066-0.104,0.897-0.985,0.968-0.869C10.1,8.925,11.35,7.94,11.283,8.263c0.1-0.492,0.183-0.719,0.711-0.753
	C12.698,7.461,12.88,5.855,13.331,5.347 M10.241,8.917C10.245,8.912,10.245,8.917,10.241,8.917"/>
<path fill="#28717E" d="M9.155,6.797C9.119,6.793,9.084,6.791,9.05,6.791C8.793,6.794,8.646,6.887,8.462,6.92
	C8.609,6.624,8.75,6.302,8.749,5.846c0-0.019,0-0.037,0-0.056L8.747,5.705L8.664,5.72C8.247,5.792,8.028,6.062,7.838,6.33
	C7.86,6.174,7.886,5.997,7.886,5.831c0-0.15-0.021-0.296-0.091-0.414L7.72,5.291L7.666,5.427c-0.082,0.208-0.147,0.429-0.22,0.638
	C7.415,5.757,7.354,5.479,7.278,5.216c0.249-0.174,0.439-0.531,0.442-0.895c0-0.104-0.017-0.209-0.055-0.309L7.648,3.966h-0.05
	C7.282,3.982,7.25,4.26,7.147,4.351C7.086,4.226,7.109,3.959,6.979,3.788L6.91,3.708L6.86,3.801C6.77,3.969,6.71,4.17,6.71,4.425
	c0,0.003,0,0.005,0,0.008c-0.091-0.084-0.193-0.197-0.405-0.2c-0.02,0-0.041,0.001-0.063,0.004L6.166,4.245l0.013,0.074
	c0.079,0.489,0.369,0.809,0.825,0.926C7.116,5.576,7.188,5.948,7.191,6.39C7.067,6.196,6.952,5.958,6.679,5.857L6.571,5.819
	l0.012,0.113c0.03,0.309,0.116,0.555,0.17,0.822c-0.204-0.176-0.421-0.361-0.759-0.43L5.91,6.309L5.907,6.395v0.015
	c0.002,0.88,0.821,1.257,1.625,1.259c0.689-0.002,1.4-0.264,1.68-0.765l0.052-0.096L9.155,6.797z"/>
</svg>
