<?xml version="1.0" encoding="utf-8"?>
<svg version="1.1"
	 xmlns="http://www.w3.org/2000/svg" xmlns:xlink="http://www.w3.org/1999/xlink" xmlns:a="http://ns.adobe.com/AdobeSVGViewerExtensions/3.0/"
	 x="0px" y="0px" width="100%" height="100%" viewBox="-64.481 0 1233 1261"
	 style="enable-background:new -64.481 0 1233 1261;" xml:space="preserve">
<style type="text/css">
<![CDATA[
	.st0{fill:#DEDB00;stroke:#FFFFFF;stroke-width:6;stroke-linecap:round;stroke-linejoin:round;}
]]>
</style>
<defs>
</defs>
<path id="corse" class="st0 disabled" d="M1042.841,880.687l-0.06-0.023L1042.841,880.687 M1044.126,895.841
	C1043.994,895.537,1044.066,895.702,1044.126,895.841 M1043.151,881.475C1043.172,881.137,1043.151,881.47,1043.151,881.475
	 M1043.278,881.298c-0.438-0.715-0.525-0.861,0.005-0.005 M1043.652,879.708C1043.581,879.705,1043.488,879.7,1043.652,879.708
	 M1044.839,896.546l-0.062-0.082L1044.839,896.546 M1043.698,879.962l-0.032-0.057L1043.698,879.962 M1043.715,879.82
	L1043.715,879.82 M1044.221,883.102L1044.221,883.102 M1044.285,883.555c0.23-0.243,0.056-0.057,0.001,0.002 M1044.493,884.839
	c5.129-2.915,6.199-1.455,4.504,2.791c-0.21-1.259,6.826,2.188,7.579,3.665c-0.52,0.203,0.144,0.061,0.196,0.168
	c-0.135-0.012-0.186,0.033-0.15,0.137c-5.068,1.89-7.716,2.701-11.634,3.641c0.105,0.279-0.34,0.045-0.229,0.02
	c-0.005,0.126-0.087,0.18-0.247,0.161c-0.019-0.036-0.391,0.51-0.267,0.477c0.017,0.025,0.627-0.161,0.325-0.082
	c-0.014-0.026,0.301,0.021-0.076,0.122c0.056,0.098,0.394,0.063,0.152,0.132c2.611,4.86,2.274,8.435,5.187,11.04
	c14.698,6.112,9.613,15.866,0.927,28.734c3.457-1.078,10.958-6.968,12.985-7.63c0.43,2.015,1.788,0.954,2.657,0.672
	c-3.249,11.964,2.576,11.433-7.793,19.77c-0.553-0.206-0.558,1.429-0.656,1.514c0.109-0.033,0.121,0.005,0.035,0.112
	c10.267,0.645,11.267,4.145,21.051,5.305c-0.179,0.084-0.517,0.243,0.017-0.03c-12.703,8.992-9.477,8.824-4.248,14.961
	c2.646,3.104,10.43,6.583,14.925,7.201c1.295,1.573,2.914,1.552,4.857-0.611c4.437,5.232,4.62,14.294,16.196,5.533
	c-0.199-0.155-0.141-0.182,0.027-0.321c-0.078-0.041-0.076-0.072,0.008-0.093c-0.277-0.188,0.171-0.666,0.352-0.851
	c-0.208-0.093-0.263-0.003-0.019-0.274c-0.135,0.024-0.158-0.018-0.071-0.127c-0.674-0.268-3.649,2.792-3.647,2.828
	c0.016-0.1-0.036-0.153-0.156-0.16c0.42-1.168-0.395-0.112-0.593-0.63c4.171-8.074,6.897-9.479,9.094-17.013
	c-0.824-2.376,5.506-7.119-3.674-2.743c0.229-0.434-0.038-0.61-0.8-0.532c0.2-0.136,0.11-0.684-0.223-0.594
	c0.227-0.137,0.428-1.274,0.343-1.268c0.274-0.145,2.622-1.159,1.271-1.696c0.374,0.108,0.489-0.055,0.345-0.488
	c8.86-4.543,5.268-12.837,5.829-26.109c6.812-16.159,10.173-37.29,6.945-54.591c-0.25,0.038-0.131-0.109-0.03-0.223
	c-0.784-13.494-4.631-27.542-10.384-38.477c-0.407-0.027-0.289-0.331-0.051-0.617c0.135,0,0.248-0.064,0.105-1.153
	c0.292-2.916,1.118-8.288,1.747-11.301c-0.669-3.212-1.251-5.934-1.821-8.519c-0.401-2.396-1.809-6.882-2.398-7.982
	c-17.895-11.279-0.598,7.913-8.549,17.384c1.396-1.663-1.982,17.413-1.95,15.415c-0.075-0.128-0.107-0.117-0.096,0.031
	c-16.069-9.808-12.654-1.044-24.57,5.575c-8.981,4.988-12.703,6.988-18.199,9.873c-0.347,0.321-0.179,0.135-0.111,0.06
	c-3.649,2.712-2.271,6.169-6.327,13.48c-3.046,5.489-7.006,9.194-8.395,12.365c-0.132,0.301-0.173,0.777-0.301,1.011
	 M1044.36,882.262l-0.062-0.024L1044.36,882.262 M1044.401,881.656l-0.062-0.082L1044.401,881.656 M1044.43,881.712L1044.43,881.712
	 M1044.547,882.105L1044.547,882.105 M1046.33,902.619l-0.062-0.053L1046.33,902.619 M1046.462,901.721L1046.462,901.721
	 M1046.865,894.932l-0.062-0.024L1046.865,894.932 M1047.168,897.708C1046.984,897.932,1047.114,897.775,1047.168,897.708
	 M1047.39,894.691L1047.39,894.691 M1046.535,878.861l-0.09-0.049L1046.535,878.861 M1048.55,902.822l-0.062-0.08L1048.55,902.822
	 M1048.029,894.413l-0.062-0.054L1048.029,894.413 M1049.759,893.451L1049.759,893.451 M1053.092,929.869l-0.032-0.056
	L1053.092,929.869 M1052.573,892.725l-0.053-0.047L1052.573,892.725 M1051.375,869.028
	C1051.2,868.84,1051.313,868.961,1051.375,869.028 M1052.219,871.872l-0.03-0.056L1052.219,871.872 M1061.613,943.581l-0.062-0.054
	L1061.613,943.581 M1055.675,858.152L1055.675,858.152 M1055.693,856.862C1055.651,856.812,1055.628,856.786,1055.693,856.862
	 M1056.172,862.066L1056.172,862.066 M1055.994,856.696l-0.062-0.023L1055.994,856.696 M1064.714,941.8
	C1064.364,941.371,1064.515,941.556,1064.714,941.8 M1064.594,937.968C1064.85,937.822,1064.646,937.939,1064.594,937.968
	 M1064.67,938.191L1064.67,938.191 M1068.177,966.301C1068.065,966.087,1068.155,966.259,1068.177,966.301 M1066.322,938.812
	C1066.281,938.758,1066.261,938.734,1066.322,938.812 M1069.387,966.755l-0.06-0.022L1069.387,966.755 M1070.095,969.653
	l-0.059-0.021L1070.095,969.653 M1070.118,969.566l-0.062-0.054L1070.118,969.566 M1070.143,968.762L1070.143,968.762
	 M1069.725,954.203l-0.031-0.056L1069.725,954.203 M1071.113,969.834C1071.064,969.648,1071.12,969.861,1071.113,969.834
	 M1062.631,853.614L1062.631,853.614 M1062.645,853.8C1062.608,853.54,1062.64,853.768,1062.645,853.8 M1071.385,960.209
	L1071.385,960.209 M1071.797,961.096L1071.797,961.096 M1073.627,959.525l-0.033-0.056L1073.627,959.525 M1074.8,973.454
	l-0.033-0.057L1074.8,973.454 M1074.868,973.219l-0.032-0.056L1074.868,973.219 M1074.87,973.247L1074.87,973.247 M1074.883,973.046
	L1074.883,973.046 M1075.159,974.028C1075.148,973.906,1075.148,973.906,1075.159,974.028 M1074.19,959.739l-0.09-0.021
	L1074.19,959.739 M1076.485,957.5l-0.062-0.054L1076.485,957.5 M1081.072,980.158
	C1081.059,979.977,1081.062,980.021,1081.072,980.158 M1082.635,976.212l-0.033-0.057L1082.635,976.212 M1073.194,847.915
	C1072.916,847.839,1073.251,847.93,1073.194,847.915 M1073.233,847.923l0.099-0.074L1073.233,847.923 M1073.417,848.635
	c0.04-0.12,0.103-0.303,0.076,0.001c-0.238-0.94-0.153-0.419-0.079,0.004 M1086.49,977.124l-0.033-0.056L1086.49,977.124
	 M1090.593,979.05C1090.542,979.028,1089.998,978.79,1090.593,979.05 M1108.484,987.607
	C1108.561,986.956,1108.509,987.391,1108.484,987.607 M1109.611,986.975l-0.033-0.057L1109.611,986.975 M1109.866,987.329
	l-0.062-0.054L1109.866,987.329 M1110.074,987.055c-0.101-0.113-0.309-0.348,0.002-0.005 M1110.417,991.083
	C1110.457,990.902,1110.474,990.818,1110.417,991.083 M1110.548,991.111C1110.524,991.195,1110.452,991.441,1110.548,991.111
	 M1110.546,991.046C1110.542,991.049,1110.851,990.844,1110.546,991.046 M1110.593,991.107L1110.593,991.107 M1110.551,989.928
	C1110.646,989.638,1110.537,989.972,1110.551,989.928 M1110.766,990.324C1110.703,990.184,1110.733,990.25,1110.766,990.324
	 M1110.785,990.199L1110.785,990.199 M1110.945,990.148l-0.062,0.032L1110.945,990.148 M1111.027,990.062l-0.018-0.08
	L1111.027,990.062 M1111.069,989.917C1110.773,989.338,1111.051,989.883,1111.069,989.917 M1111.067,989.544l-0.104-0.002
	L1111.067,989.544 M1111.219,989.837C1111.16,989.782,1111.158,989.781,1111.219,989.837 M1111.005,987.07
	c-0.51,0.834,0.09,1.153,0.627,1.353C1112.493,987.553,1112.172,987.146,1111.005,987.07 M1111.475,991.492
	c0.049-1.035-0.15-1.53-0.838-1.129c0.066,0.53,0.289,0.765,0.833,1.135 M1111.297,988.49l0.077,0.041L1111.297,988.49
	 M1111.304,988.466C1111.437,988.282,1111.368,988.377,1111.304,988.466 M1111.705,991.503
	C1111.67,991.355,1111.652,991.271,1111.705,991.503 M1111.333,985.103C1111.113,984.637,1111.36,985.16,1111.333,985.103
	 M1111.356,984.894C1111.417,984.817,1111.511,984.697,1111.356,984.894 M1112.029,988.266h-0.17H1112.029 M1111.981,987.153
	l-0.033-0.056L1111.981,987.153 M1112.943,962.29L1112.943,962.29 M1115.046,987.191
	C1114.963,987.095,1114.895,987.017,1115.046,987.191 M1115.082,987.275l-0.062-0.054L1115.082,987.275 M1113.696,968.021
	L1113.696,968.021 M1113.722,968.038l0.007-0.076L1113.722,968.038 M1113.748,967.841l-0.005,0.076L1113.748,967.841
	 M1113.779,968.014L1113.779,968.014 M1116.904,958.232C1116.863,958.183,1116.841,958.158,1116.904,958.232 M1117.407,963.456
	c-0.029-0.248-0.006-0.064,0.003,0.002 M1117.421,957.63C1117.276,957.436,1117.271,957.429,1117.421,957.63 M1118.294,966.639
	C1118.402,966.579,1117.379,967.16,1118.294,966.639 M1118.411,965.956C1118.377,965.865,1118.382,965.878,1118.411,965.956
	 M1118.484,966.23C1118.305,965.785,1118.507,966.288,1118.484,966.23 M1118.987,965.051
	C1118.927,965.584,1118.881,965.994,1118.987,965.051 M1120.033,971.408C1119.987,971.292,1119.912,971.101,1120.033,971.408
	 M1120.134,971.245C1120.098,971.056,1120.101,971.071,1120.134,971.245 M1120.301,971.189l-0.062-0.08L1120.301,971.189
	 M1120.172,965.947C1120.168,965.925,1120.136,965.741,1120.172,965.947 M1120.248,951.755
	C1120.24,951.671,1120.239,951.667,1120.248,951.755 M1108.69,803.169C1108.528,802.792,1108.257,802.163,1108.69,803.169
	 M1113.766,806.91c0.006-0.154,0.01-0.253-0.002,0.062l0.004-0.062 M1114.03,806.973
	C1113.951,806.986,1113.856,807.001,1114.03,806.973 M1114.194,807.072C1114.105,806.941,1114.095,806.926,1114.194,807.072"/>
<path id="nord-pas-de-calais" class="st0 disabled" d="M481.349,83.28c12.144,1.137,25.277,4.639,31.308,15.258
	c-0.057-0.101,0.186,1.101,0.11,0.95c5.271-0.338,12.991,2.039,17.33-1.277c3.24,3.404,4.885,1.752,9.725,0.529
	c-0.411,0.857,2.604,3.39,3.139,3.495c-5.452,4.287-5.473,3.592-8.562,8.874c0.281,0.347,0.26,0.717-0.062,1.112
	c0.641-0.254,1.133-0.13,1.477,0.372c-0.377,0.032,1.475-0.808,1.014,0.463c0.765-0.165,1.131,0.864,0.983,1.477
	c14.784-5.886,5.092-2.184,20.035,1.024c0.099,0,0.541-0.462,0.864-0.404c-1.457-0.204-0.747-4.827-0.488-4.924
	c0.618,1.307,3.924,1.631,4.591,1.657c0.14,0.138,0.232,0.059,0.278-0.238c-0.174,2.934-2.374,5.049-2.242,7.761
	c0.035-0.007,0.5,0.739,0.509,0.847c0.398-0.334,0.646-0.326,0.741,0.025c0.522-0.209,1.153-0.498,0.967-0.967
	c1.658-0.342,3.674-3.389,5.113-3.466c0.083,0.062,0.533,0.117,0.692,0.104c2.017,1.483-0.619,5.283-0.604,5.346
	c0.862-0.066,0.417,0.334,0.5,0.601c0.416-0.048,0.399,0.106,0.517,0.458c0.104-0.178,0.203-0.221,0.3-0.129
	c0-0.376,0.172-0.331,0.517,0.135c15.231-2.47,29.462-3.025,46.972-2.781c8.353,0.116,13.172-1.014,24.638,1.139
	c18.635,13.816,24.887-3.87,20.916-21.053c-0.424-1.833,3.501-2.646,3.594-4.54c-0.337,0.027-0.962-1.348-0.959-1.581
	c-0.131,0.043-0.228-0.003-0.29-0.137c-0.892,0.603-1.898-0.195-1.99-1.122c-0.5,0.156-0.652,0.024-0.459-0.396
	c-0.645,1.635-1.605,0.619-0.115,3.178c-0.185-0.051-0.278,0.028-0.281,0.237c-0.147-0.156-1.712,0.174-1.862,0.09
	c-0.028-0.09-0.074-0.11-0.138-0.061c-1.108-4.209-3.451-7.43-7.515-10.618c-9.576,0.622-21.062,2.566-24.818,3.935
	c-2.422-27.908-16.446-11.61-25.675-21.299c-6.273-6.587-2.273-18.979-8.181-22.279c-0.109-0.061-28.642-5.97-20.455,1.18
	C558.332,33.022,548.779,31.276,547.042,3c-1.513,0.813-14.509,4.878-11.756,5.467c-3.659-0.975-10.809-1.55-15.095-0.596
	c3.15,0.872,8.243,0.635,1.197,4.773c-0.064-0.016-0.503-0.083-0.218-0.223c-1.03-0.215-1.777-4.509-0.998-3.853
	c-31.973,4.896-51.388,26.398-37.836,58.281c-0.18-0.004,1.054,0.109,1.098,0.197c-1.588,0.05-4.309-2.377-4.585-3.454
	C473.363,76.34,480.623,78.378,481.349,83.28"/>
<path id="picardie" class="st0 disabled" d="M660.924,126.322c-9.624-2.603-13.892-3.833-19.206-5.615
	c-18.319-3.441-31.49,1.499-48.476,2.002c-7.883,0.234-13.989-1.846-23.132-0.359c-0.346-0.467-0.518-0.512-0.516-0.136
	c-0.099-0.089-0.199-0.045-0.301,0.13c-0.118-0.354-0.1-0.506-0.517-0.458c-0.084-0.266,0.357-0.667-0.501-0.601
	c-0.017-0.066,2.618-3.864,0.603-5.347c-0.157,0.013-0.611-0.043-0.692-0.104c-1.356,0.074-3.616,3.094-5.113,3.467
	c0.186,0.465-0.44,0.756-0.966,0.967c-0.094-0.352-0.341-0.361-0.741-0.027c-0.01-0.115-0.473-0.853-0.51-0.845
	c-0.133-2.703,2.068-4.836,2.243-7.759c-0.047,0.298-0.14,0.376-0.279,0.237c-0.667-0.025-3.973-0.349-4.591-1.655
	c-0.262,0.099-0.971,4.725,0.487,4.927c-0.324-0.058-0.765,0.401-0.866,0.402c-14.944-3.198-5.248-6.91-20.037-1.017
	c0.147-0.612-0.217-1.642-0.981-1.477c0.461-1.271-1.389-0.432-1.015-0.463c-0.343-0.503-0.834-0.627-1.476-0.372
	c0.321-0.395,0.342-0.765,0.061-1.111c3.085-5.283,3.112-4.596,8.561-8.889c-0.534-0.105-3.547-2.637-3.138-3.494
	c-4.843,1.227-6.485,2.88-9.725-0.524c-4.34,3.318-12.056,0.943-17.329,1.282c-6.406-12.839-15.875-12.097-30.429-14.062
	c0.004,0-1.294-2.691-1.557-2.725c-6.929,3.294-6.478,10.116,0.676,17.082c0.416-0.087,1.759-0.372,0.007,0.018
	c1.681,0.949,1.339,1.694,0.93,2.273c0.372-0.02,1.027,0.501,1.6,1.69c-0.267-0.125-0.346-0.148-0.646-0.104
	c-1.199-1.073-4.896-0.36-6.549-4.15c-5.288,4.006-9.987,9.235-13.827,16.642c4.913,1.764,19.511,13.601,24.395,25.45
	c1.417,3.436,2.732,5.676,4.216,8.806c-0.182,0.068-0.232,0.195-0.15,0.38c-4.047,2.381-3.438,1.759-7.022,7.068
	c5.153-0.588,4.432,3.198,2.101,6.875c1.332,5.757-0.92,7.646-0.464,14.304c0.459,0.294,0.511-0.179,0.635,0.471
	c0.785,0.716,0.644-0.543,1.415,1.224c0.622-1.007,0.496-2.922,1.937-2.664c-0.048,0.089,1.136,0.742,1.159,0.747
	c-0.249,0.31-0.066,0.86,0.218,0.954c-8.291,8.93-1.896,10.045-1.614,20.652c-2.382,2.604,4.892,7.738-4.769,5.22
	c0.004,0.021-0.65,3.231-0.769,3.279c6.329,7.696,23.11,6.488,33.662,8.045c6.158,0.909,9.168-0.805,17.189,2.108
	c14.073,8.518,28.412,2.022,43.045,7.946c8.152,3.3,17.911,6.061,27.818,16.755c4.003,6.044,1.024,6.314,7.003,10.088
	c6.519-6.428,11.163-12.402,15.715-20.272c-0.511-4.72-6.558-0.755-6.702-1.667c7.755-10.189,0.726-6.984,11.681-13.816
	c-0.272-0.234-0.137-1.199,0.053-1.336c-0.171-0.236-0.112-0.358,0.175-0.367c-18.509-13.765,9.22-25.15,21.332-27.251
	c-0.082-0.05-0.117-0.019-0.104,0.093c-1.411-9.899,2.99-13.579-2.016-22.967c0.108-0.026,0.123-0.074,0.045-0.143
	c1.037-0.44,1.433-0.665,1.121-1.773C669.557,158.436,672.378,139.391,660.924,126.322"/>
<path id="haute-normandie" class="st0 disabled" d="M462.94,116.161c0.099-0.072-11.729,8.399-12.86,9.196
	c-1.652,2.235-5.619,4.295-8.68,4.662c-6.951,2.571-18.878,5.373-27.093,6.283c0.246,0.624,0.184,0.543-0.093-0.028
	c-8.1,1.812-16.455,5.547-24.285,10.797c-7.04,3.313-15.281,8.243-19.056,11.329c1.84-1.116,2.576-0.608,1.979,1.482
	c0.508,15.202-9.399,24.238,13.261,23.381c0.231,0.817,0.926,0.805,2.083-0.037c-5.382,11.94,0.328,13.769,0.472,17.735
	c-0.069,0.702-0.184,1.541-0.171,2.386c-0.655,10.043,0.656,21.55,3.321,28.085c-2.828,25,20.233,11.108,22.92,38.82
	c12.149-5.85,21.236-7.314,26.276-12.571c15.839,5.02,26.214-6.235,29.541-20.411c-3.945-10.409,6.17-10.11,14.441-30.876
	c1.676-4.209,5.757,1.574,5.957,1.338c-0.129-0.917,0.35-2.067,0.946-2.789c-3.213-12.256-1.654-13.851-0.491-25.175
	c-0.455-0.15-0.258-0.319-0.217-0.955c-0.069-0.015-0.526-0.12-0.52-0.378c-0.081-0.015-0.638-0.104-0.641-0.369
	c-0.864-0.154-2.1,1.493-1.937,2.664c-0.356-0.815-1.424-1.251-1.414-1.223c-0.128-0.672-0.441-0.096-0.636-0.471
	c-0.457-6.661,1.796-8.547,0.466-14.308c2.331-3.675,3.048-7.461-2.104-6.875c3.585-5.307,2.982-4.688,7.022-7.068
	c-0.082-0.185-0.031-0.312,0.15-0.38c-5.962-12.492-13.508-25.647-23.248-32.328C464.577,115.501,466.734,117.521,462.94,116.161
	L462.94,116.161L462.94,116.161"/>
<path id="ile-de-france" class="st0 disabled" d="M469.25,241.409c-1.106-2.539,1.536-25.211,15.29-31.878
	c0.085-0.042,0.06-0.305,0.178-0.488c0.104,0.046,0.149-0.007,0.135-0.159c0.198,0.26,0.192-0.667,0.167-0.624
	c0.085,0.117,0.252,1.166,0.426,0.903c0.123,0.119,1.839,1.01,1.814,1.036c6.894,6.066,24.597,4.601,35.705,6.446
	c2.296,0.381,6.51,0.393,12.152,2.439c14.065,8.508,28.426,2.024,43.053,7.948c8.148,3.3,17.917,6.069,27.817,16.756
	c4.225,7.853,1.954,6.315,8.632,8.447c-0.059,0.083,0.301,1.407,0.408,1.454c-0.204,0.241-0.617,2.255-0.233,2.625
	c-0.658,0.575-4.874-0.48-6.06,0.719c2.066,4.836,3.393,9.19,3.6,19.021c0.225,0.108,0.199,0.227-0.078,0.355
	c0.441,0.67,4.737-2.539,6.089-1.358c-1.27,1.831-0.502,1.388,1.909,3.222c-10.03,12.171-11.028,13.315-10.528,25.337
	c-24.867-3.049-18.485,15.775-35.408,23.093c-12.239,5.293-16.369,6.386-36.144,6.488c0.13-0.353-0.586-0.135-0.701-0.134
	c6.005-14.914,0.31-21.32-13.843-19.588c-0.157-0.177-0.359-0.115-0.607,0.187c-0.68-2.144,0.237-5.093-3.144-5.182
	c-3.833,6.783-6.524,3.102-14.489,6.333c-0.24-2.979-4.29-13.434-5.529-19.1c-16.194-8.361-19.511-21.56-25.305-38.36
	C472.561,251.565,472.014,247.969,469.25,241.409"/>
<path id="champagne-ardenne" class="st0 disabled" d="M614.656,252.239c6.331-6.903,7.527-11.155,14.084-18.625
	c-0.594-5.487-4.653-0.005-6.702-1.667c7.754-10.188,0.722-6.986,11.682-13.816c-0.272-0.234-0.14-1.198,0.051-1.336
	c-0.171-0.236-0.112-0.357,0.175-0.365c-18.506-13.763,9.152-25.172,21.297-27.269c-0.08-0.049-0.114-0.019-0.103,0.091
	c-1.41-9.895,2.987-13.578-2.015-22.969c0.109-0.025,0.125-0.073,0.045-0.142c1.038-0.441,1.431-0.666,1.119-1.775
	c8.493-3.292,8.55-8.429,13.333-15.173c9.883-13.936,7.517-8.139,20.006-19.665c9.632-8.889,17.438-10.896,21.964-25.267
	c0.127,0.97,2.658,3.412,3.809,1.635c-0.208,0.535,0.939,2.173,1.437,1.731c-6.422,10.683-4.654,23.891-2.325,38.464
	c14.731,1.485,32.688,11.949,39.647,18.551c-0.486,0.213-1.387,2.029-0.998,2.629c-8.366,1.451-19.488,6.834-19.958,6.91
	c-1.223,5.362-0.615,12.792,0.788,15.932c-8.763,10.898-10.612,21.653-9.188,41.556c3.589,4.858,1.866,14.441-2.645,25.857
	c5.652,21.084,14.881,15.89,32.277,32.692c2.853,2.755,6.219,4.716,9.344,7.17c-0.425,0.859-5.549,3.405-5.547,3.441
	c4.013,1.679,2.997,1.843,1.98,5.688c0.358,0.226,0.56,0.548,0.604,0.968c16.583,0.731,17.565,10,18.627,21.362
	c0.652,6.872,17.374,16.376,17.075,25.279c-0.297,8.842-21.162,21.821-30.111,26.097c-7.373,3.522-9.738,6.625-15.993,11.399
	c-3.446-11.251-8.865-5.986-11.242-8.21c-0.234-0.524-0.534-0.681-0.929-0.631c-0.81,0.321-1.271,0.042-1.182-0.935
	c-3.923-1.291-1.451-5.561-8.274-1.722c0.142-6.034-2.279-6.234-4.17-8.966c5.61-27.167-14.625-21.114-31.039-21.526
	c-12.464-0.313-15.211,1.06-22.671-0.366c-4.819,3.346-9.939,4.087-22.466,5.635c-0.135-0.232-0.334-0.363-0.599-0.394
	c-0.292-2.309,3.254-5.435-0.136-8.042c1.509,2.329-9.107-11.754-13.223-19.193c4.101,3.144-8.515-0.924-10.701-1.383
	c-2.024-14.381,0.27-9.45-11.044-18.739c-3.24-13.832-2.296-19.096,9.557-28.883c-2.343-1.781-3.274-1.437-1.906-3.222
	c-1.385-0.944-5.727,1.909-6.091,1.357c0.279-0.128,0.306-0.246,0.079-0.354C609.104,263.33,609.672,259.34,614.656,252.239"/>
<path id="lorraine" class="st0 disabled" d="M794.464,351.322c-5-3.395-12.415-12.025-17.458-15.526c-2.845-3.573,0.812-2.902,0.43-6.978
	c-1.062-11.364-2.052-20.635-18.633-21.369c-0.048-0.419-0.251-0.742-0.608-0.969c1.018-3.843,2.035-4.006-1.979-5.686
	c-0.002-0.036,5.123-2.581,5.548-3.442c-18.403-14.445-28.735-19.418-34.568-31.252c-0.924-1.875-6.945-8.223-7.049-8.61
	c4.512-11.416,6.237-21.002,2.652-25.86c-1.427-19.9,0.426-30.674,9.18-41.565c-1.4-3.141-2.007-10.582-0.784-15.933
	c3.447-3.517,9.9-4.689,20.945-9.543c2.69,3.152,3.865,10.505,4.242,10.968c0.154-0.033,0.199,0.01,0.135,0.13
	c22.969-9.255,24.746,4.121,41.225,5.468c18.134,1.483,18.228-6.671,41.174,5.671c1.374,0.739,11.934,19.661,19.764,25.408
	c10.636-9.246,3.019-7.401,16.084,3.471c7.02-2.313,15.535-1.272,28.256-9.467c8.429,6.668,12.376,11.536,9.708,27.094
	c-16.227-1.505-26.537-2.959-33.338-13.383c-0.427,0.443-0.812-0.235-0.992-0.519c-0.543,0.757-0.857,1.547-1.663,0.534
	c-4.107,7.908-7.443,12.466-8.994,16.46c0.104,0.234,0.09,0.456-0.042,0.664c3.159,4.062,8.247,4.119,11.701,6.251
	c-0.083,0.366,0.03,0.637,0.34,0.813c-0.227,0.145-0.251,0.289-0.074,0.433c-3.575,1.847-3.279,5.111-1.916,6.578
	c0.304-0.229,0.795,0.777,0.8,0.783c13.018-11.244,14.855-3.931,13.684,11.88c-2.381,5.656,3.676,12.781-12.541,16.092
	c-0.126,0.447-0.342,0.846-0.647,1.197c0.231,0.448,6.269,1.171,5.126,2.084c0,0.134,0.023,0.751,0.285,0.466
	c0.241,12.167,6.162,29.254-6.743,52.108c-12.246,21.687-11.589,25.397-38.795,18.265c-11.875-7.426-18.45-5.463-26.525-14.325
	c-7.873,4.5-7.333,6.15-13.182,10.373c0.009-0.23-0.785-0.204-1.014-0.053c-0.123-0.162-0.296-0.214-0.52-0.158
	c2.674-8.048-0.56-2.176-3.239,1.464"/>
<path id="alsace" class="st0 disabled" d="M889.814,394.099c29.981,22.666,25.507-10.234,29.464-37.188
	c7.157-48.75,14.347-87.699,42.584-130.017c-9.635-3.639-21.653-7.578-31.354-8.106c-11.001-0.599-12.686,3.459-17.805,14.536
	c-16.221-1.506-26.532-2.962-33.329-13.389c-0.426,0.441-0.814-0.237-0.995-0.52c-0.542,0.756-0.855,1.546-1.66,0.534
	c-4.108,7.91-7.443,12.47-8.993,16.462c0.105,0.234,0.091,0.456-0.042,0.665c3.156,4.058,8.247,4.12,11.699,6.253
	c-0.078,0.365,0.036,0.636,0.344,0.812c-0.228,0.146-0.252,0.29-0.073,0.434c-3.582,1.846-3.28,5.109-1.916,6.579
	c0.303-0.229,0.795,0.778,0.799,0.783c13.023-11.243,14.866-3.933,13.695,11.881c-2.382,5.656,3.671,12.782-12.542,16.091
	c-0.127,0.446-0.342,0.844-0.646,1.195c0.234,0.455,6.269,1.171,5.128,2.083c0,0.139,0.024,0.748,0.282,0.467
	c0.274,13.574-6.287,27.6-6.746,52.11c-0.429,22.902-7.431,23.736,2.459,43.645C882.343,383.792,885.706,384.559,889.814,394.099"/>
<path id="franche-comte" class="st0 disabled" d="M866.629,359.709c-10.572-5.603-14.704-11.993-27.77-5.641
	c-11.867-7.422-18.449-5.466-26.528-14.328c-8.481,3.369-7.417,6.213-13.18,10.373c-0.253,0.045-0.684-0.273-1.018-0.053
	c-0.121-0.162-0.294-0.215-0.517-0.159c0.789-0.328,1.618-3.478,2.084-3.666c-0.411,0.045-0.571-0.033-0.481-0.234
	c-0.139,0.125-0.235-0.916-0.617-0.859c-0.022,0.179-0.132,0.189-0.33,0.03c-0.021,0.133-0.09,0.155-0.203,0.064
	c-0.373,0.416-0.081,0.216-0.352,0.261c-11.293,12.815-18.32,22.856-24.779,33.055c3.435-5.423-18.889,10.517-15.8,9.446
	c0.134,0.069,0.183,0.173,0.146,0.313c0.273-0.064,0.482,0.053,0.625,0.35c0.024,0.033,0.767,0.104,0.342,0.318
	c0.129,0.032,0.145,0.098,0.047,0.196c6.626,8.92,4.753,2.896-1.065,14.642c1.124,0.706,1.536,0.356,0.961,1.465
	c22.528,13.953-3.171,23.094-4.074,43.801c-0.504,11.549-0.154,19.82,11.235,21.883c0.701-0.273-2.562,4.736-8.071,3.891
	c0.461,0.664,0.248,0.375-0.103,0.332c0.178,0.207,0.134,0.287-0.131,0.24c0.106,0.265,0.018,0.342-0.265,0.231
	c0.05,0.068-0.424,0.388-0.397,0.387c0.179,0.032,0.218,0.11,0.117,0.235c7.357,9.64,7.393,24.098,8.146,34.391
	c-0.323,0.312,0.048,1.333,0.068,1.507c-5.579,4.769-6.904,5.613-9.172,8.26c1.798,3.641,5.312,6.345,8.463,11.403
	c6.765,0.161,3.304,8.146,18.228-4.422c21.78,19.562,45.492-26.918,58.09-47.681c14.52-23.93,25.83-45.818,44.883-66.65
	c-0.366-0.11-0.367-0.098-0.15-0.344c0.011,0.003,0.422-0.656,0.504-0.75c-0.694-0.16-1.497-0.95-1.04-1.876
	c-3.904-0.59-8.074,1.389-12.811,1.622c0.099-0.094,0.462-2.25,0.213-2.265c5.382-4.236,6.774-8.405,6.815-13.87
	c11.251-8.154,6.034-17.318-6.134-30.666c-1.604-1.76-4.491-3.608-5.979-5.273"/>
<path id="bourgogne" class="st0 disabled" d="M756.36,516.939c-9.633-6.039-20.229-7.216-28.596-7.334
	c-2.713,10.743-10.403,25.74-11.445,38.38c-0.285-0.101-0.536-0.038-0.753,0.186c-0.125-0.476-0.756,0.022-0.795,0.279
	c-0.089-0.031-0.125,0-0.108,0.092c-0.026-0.16-2.222-0.632-2.226-0.617c0.069-7.115-2.604-7.376-3.1-13.76
	c-0.319-0.021-0.972,0.278-1.067-0.417c-14.948-0.374-24.14,12.52-32.677,13.811c-4.072,0.615-15.931,2.178-20.887,0.934
	c-7.735-20.678,3.089-25.353-20.792-46.843c-2.808-2.527-5.99-12.741-6.803-16.074c-0.169,0.123-0.306,0.035-0.411-0.265
	c-1.216,0.847-2.303,0.09-2.692-0.896c-0.031,0.213-0.946,1.537-1.034,1.381c0.2,4.392-2.967,4.88-4.456,7.569
	c-9.03,2.085-20.716-2.111-37.06-12.433c7.062-29.465-7.56-54.587-14.136-83.352c0.39-0.059,0.594-0.267,0.61-0.625
	c0.18,0.007,0.278-0.074,0.297-0.241c-0.12,0.508,7.695-1.136,9.002-1.898c-4.75-6.164-6.594-15.257-9.316-20.879
	c30.752-14.001,4.677-27.442,9.592-43.805c-0.07,0.234-3.003-1.158-3.21-1.289c0.066-0.146,0.023-0.297-0.127-0.453
	c3.866-17.918,20.169-28.238,34.477-25.045c12.818,2.861,13.796,12.097,13.081,22.493c2.183,0.458,14.803,4.53,10.7,1.386
	c4.118,7.438,14.744,21.533,13.233,19.201c3.39,2.608-0.156,5.735,0.135,8.043c0.267,0.027,0.466,0.159,0.599,0.395
	c12.531-1.548,17.652-2.29,22.465-5.632c24.294,4.629,32.082-4.828,49.231,7.203c9.47,6.643,6.664,4.117,4.468,14.729
	c1.89,2.731,4.312,2.93,4.17,8.966c6.82-3.843,4.349,0.429,8.272,1.721c-0.089,0.978,0.373,1.256,1.185,0.935
	c0.392-0.049,0.692,0.108,0.927,0.632c4.093,1.742,7.791-3.07,11.244,8.21c7.833-2.37,7.257-3.274,13.999-6.298
	c-3.106,11.442,1.422,10.764-5.063,18.487c0.961,0.604,1.749,0.476,0.962,1.464c22.511,13.95-3.176,23.114-4.088,43.789
	c-0.509,11.543-0.188,19.806,11.22,21.875c0.702-0.274-2.565,4.735-8.072,3.892c0.461,0.665,0.248,0.375-0.103,0.332
	c0.178,0.208,0.135,0.289-0.13,0.24c0.105,0.265,0.017,0.343-0.266,0.233c0.048,0.066-0.426,0.387-0.397,0.386
	c0.18,0.033,0.219,0.112,0.118,0.238c7.381,9.682,7.324,24.066,8.136,34.394c-2.741,4.583-5.499,3.379-8.292,6.285"/>
<path id="centre" class="st0 disabled" d="M574.298,328.914c-14.806,3.126-15.61,2.341-36.118,4.287c0.127-0.345-0.594-0.142-0.701-0.134
	c6.004-14.917,0.309-21.324-13.845-19.588c-0.157-0.177-0.358-0.114-0.604,0.188c-0.682-2.133,0.229-5.092-3.149-5.178
	c-3.836,6.785-6.527,3.104-14.484,6.338c-0.24-2.972-4.296-13.443-5.534-19.104c-17.848-9.21-13.787-27.293-25.316-38.359
	c0.117,0.112-4.171-13.253-5.31-15.956c-0.25,0.572-2.778,0.5-2.963,0.324c-0.121,0.326-0.122,1.899-1.004,1.442
	c-6.752,16.108-8.114,17.681-24.283,14.519c-3.954,2.156-16.763,10.058-21.777,16.743c12.922,14.358,10.729,28.257-6.619,36.918
	c4.504,6.263,2.752,10.078,11.085,17.315c-0.439,0.53,0.145,0.689,0.361,0.881c-9.11,11.029-4.256,20.931-13.494,34.158
	c-8.715,12.478-12.818,19.476-28.016,19.697c-4.659,1.247,2.727,5.982,1.25,7.271c-0.664-0.138-1.066,0.537-1.429,0.847
	c-0.206-0.022-0.342,0.046-0.41,0.206c-3.979-1-7.19-4.155-10.959-5.095c-3.155,24.547-13.317,39.669-7.859,56.037
	c3.05,9.148,18.162,23.237,31.112,11.926c0.322,0.29,3.497,0.272,3.851-0.004c18.72,23.677,21.04,39.822,37.924,57.628
	c3.558,3.752,1.613,5.078,5.793,7.368c0.54,1.63-2.957,4.323-2.5,6.29c5.152,0.647,12.213,3.201,17.853,3.584
	c15.593-7.513,18.761-6.285,36.243-9.389c23.376-4.15,37.311-4.529,55.221-16.136c-8.403,5.446,34.621-27.447,34.979-28.448
	c7.796-21.82-11.335-56.121-16.303-77.839c0.391-0.058,0.595-0.267,0.612-0.625c0.179,0.006,0.277-0.074,0.297-0.24
	c-0.12,0.506,7.692-1.135,8.999-1.897c-4.751-6.142-6.598-15.272-9.312-20.878c16.291-7.414,27.209-29.312,9.595-43.804
	c-0.101-0.083-2.848-1.058-3.211-1.288"/>
<path id="basse-normandie" class="st0 disabled" d="M242.316,267.638c2.78,0.015,4.161,0.394,5.973,1.474
	c4.403-0.387,6.062-3.396,9.738-1.689c-4.242-1.672-0.554-3.106-1.405-5.252c-13.406,0.771-8.266-9.191-14.981-17.421
	c-0.372-0.491-0.619-0.707-0.405,0.033c0.025-0.058,4.936-13.56,4.043-10.51c-0.766-3.028,0.092-8.788,4.326-10.009
	c-5.557,1.434-8.079-0.062-7.117-6.895c-0.05-2.352,2.112-13.961,3-16.057c-0.61,0.053-1.112,0.03-0.509-0.383
	c-2.285-2.406-7.248-5.28-5.993-12.012c-0.681-0.198-2.17-0.625-2.304-1.546c-0.377-0.113,0.486,2.628,0.542,1.685
	c-0.076-0.058-0.288-0.378-0.277,0.055c-6.491-5.356-8.164-16.737-9.61-25.612c-1.8-3.664-3.221-14.913-5.139-18.614
	c0.246,0.05,0.441-0.562,0.371-0.774c0.135-0.009,0.158-0.064,0.069-0.166c0.083,0.041,0.581,0.012,0.558-0.157
	c0.014,0.008,0.65,0.476,0.681,0.084c4.861,3.276,11.11,3.282,18.535,7.296c-2.788,1.716,0.875,1.666,3.298,1.716
	c-0.744-0.284-0.921-0.237-1.309-0.002c0.027,0.295-0.147,0.357-0.518,0.149l0.114,0.688c0.322-0.297,0.67-0.362,0.767,0.288
	c0.119-0.104,0.316-0.095,0.667-0.008c-0.458,0.203-0.298,0.472-0.116,0.652c-0.668,0.373,1.086-0.631,0.864-0.502
	c0.553,0.021,0.457-0.479,0.021-1.133c0.779,0.567,1.31,0.737,2.078,0.636c-0.339-0.011-0.313-0.011-0.586-0.047
	c0.535,0.063,1.129-0.207,1.318-0.738c0.368,0.565,0.987,0.792,1.628,0.649c1.951,0.096,4.257-1.204,5.464-3.242
	c2.445-1.214,10.189-1.476,15.169-0.286c-0.616,1.679-0.414,2.628,0.395,2.796c-3.227,10.739,0.175,25.524,8.201,35.498
	c8.303-4.778,17.528-3.684,26.202,1.788c-0.291,0.313-0.232,0.408,0.089,0.305c0.196,0.164,0.081-0.042-0.009-0.204
	c13.625,4.156,28.566,4.16,37.664,11.026c8.144-5.89,28.133-9.593,39.041-16.511c1.197,10.478,5.545,15.065,5.825,16.265
	c-0.069,0.7-0.288,1.527-0.17,2.384c-0.653,10.042,0.659,21.545,3.324,28.086c-2.429,21.377,18.62,18.524,26.408,38.817
	c0.341,0.888,0.544,3.206,0.993,4.18c12.917,14.366,10.725,28.269-6.623,36.92c0.33,0.916,4.545,4.434,5.259,10.056
	c-0.196-0.111-0.303-0.085-0.32,0.078c-1.183-0.16-1.333,0.6-1.333,1.345c-0.504-0.134-3.743,1.523-3.795,1.902
	c-13.431-6.788-23.408-11.352-27.191-28.192c-11.962-5.576-22.417-4.37-31.989,4.373c-2.515-11.954-8.636-11.889-13.407-22.013
	c0.007-0.005-0.453,0.522-0.46,0.51c-7.783,6.146-14.066,7.17-30.49,11.913c-4.674-2.894-13.325-4.961-27.869-7.718
	c-18.588-3.522-27.082,6.891-35.638-8.805c-0.45-0.826-2.553-4.83-3.034-7.19 M242.3,151.361
	C242.263,151.256,242.242,151.198,242.3,151.361 M247.051,151.512C243.171,150.771,242.634,150.668,247.051,151.512 M248.953,152.31
	c-0.948-1.67-0.687-1.036,0.043,0.485l-0.04-0.486 M246.514,222.851C246.736,221.967,246.533,222.778,246.514,222.851
	 M246.827,264.042C246.781,264.22,246.796,264.163,246.827,264.042 M246.813,266.93C246.764,266.721,246.74,266.619,246.813,266.93
	 M271.849,162.18C272.833,161.65,272.055,162.069,271.849,162.18 M272.25,162.564l0.062,0.065L272.25,162.564"/>
<path id="bretagne" class="st0 disabled" d="M167.919,394.198c21.822-1.92,22.314-14.595,43.998-24.796
	c16.666-7.84,32.697-14.808,49.213-6.13c12.057-20.259,13.188-22.552,14.902-44.655c2.113-27.233,0.774-25.53-10.396-40.179
	c-0.893-1.171-18.578,12.536-23.343-10.798c-13.359-3.764-25.17,4.855-19.363-10.462c-0.178-0.074-0.193-0.223-0.046-0.447
	c-3.316,1.003-9.17,1.755-7.118,2.873c-3.181-0.738-5.516,0.771-7.268,4.22c0.8-0.564,0.549-0.267,0.1,0.172l0.501-0.022
	l-0.141,0.031c-0.082,0.057-0.194,0.283-0.152,0.812c0.057,1.192-2.306,0.097-5.618-0.326c-0.433-0.406-0.612-0.729-0.602-1.417
	c-2.347,3.647-3.685,5.682-5.416,4.918c-1.058-0.663-3.795,7.419-4.12-5.487c-0.164,0.095-0.239,0.066-0.226-0.088
	c-2.146-1.348-4.097,3.932-5.268,3.531c0.095-0.334-0.8-0.867-1.124-1.001c-0.07-0.257-0.229-0.274-0.477-0.052
	c0.795-1.474,4.198-3.299,4.258-5.248c-0.119-0.015-0.431,0.313-0.438,0.037c-1.611-0.195-1.268-0.564-1.436-1.558
	c-0.209,0.127-0.509-0.698-0.54-0.848c-2.999,3.048-7.428,4.087-7.53,4.109c-2.854-0.873-5.331-1.143-4.666,1.098
	c0.935,1.475-1.79,2.867-5.945,3.793c-1.793,1.527-4.556,5.672-5.382,8.344c-5.735,0.114-5.027,0.491-8.714-1.286
	c0.141-0.287-0.616-0.049-1.043,0.083c2.514-4.019-0.262-6.976-3.932-9.004c-0.179-1.416-0.253-3.24-0.193-4.838
	c-0.56-0.246-0.129-0.296,0.442-0.31c-0.667-0.104-0.316-0.047,0.148,0.027c-4.632-6.552-8.314-10.522-13.771-14.478
	c0.249-0.813,0.326-1.477-1.648-2.037c-0.084,0.183-0.456,1.029-0.207,0.319c-0.042-0.078,0.01-0.479,0.124-0.734
	c0.267-0.191,2.121-0.767,2.697-0.737c0.007-2.368-1.567-3.199-3.721-3.169c-4.209,6.838-5.698,9.173-8.401,12.716
	c1.788-3.837,3.354-6.838,5.67-10.879c0.315-3.203,1.062-4.521,1.831-5.902c0.051-0.007-0.547-0.94-0.554-1.081
	c-2.162,0.935,0.712-0.84,1.081-1.729c-9.016,6.496-12.188,10.488-15.133,14.426c-0.343-0.745,0.111-1.07,0.692-1.457
	c2.092-1.219,3.728-2.494,1.042-2.776c-0.243-0.248-0.196-0.187-0.361-0.716l-0.322,0.599c1.549-2.757,4.705-3.828,3.43-8.489
	c-0.269,0.118-0.099-0.392-0.09-0.363c-0.092,0.069-0.145,0.037-0.16-0.096c-0.277,0.011-0.385-0.118-0.322-0.384
	c-0.139,0.326-0.276,0.369-0.412,0.129c-0.104,0.073-0.225,0.2-0.368,0.015c-0.073,0.055,0.116,0.451-0.248,0.059
	c-3.789,2.894-12.146,4.528-15.22,5.917c-1.781-2.922-4.246-4.367-4.527-4.424c-2.246,2.368-3.92,3.156-5.1,5.136
	c-1.133-0.209-1.398,0.511-1.433,1.849c-0.279,1.006-0.034,1.748,1.584,1.457c-1.392,5.934-0.958,8.714-8.049,10.59
	c-1.221-1.126-5.877-3.896-11.428-7.767c-2.527,3.68-2.069,7.83-2.026,10.563c-1.821,0.157-3.811-2.931-4.561-5.68
	c-0.37,0.14-0.722-0.153-1.007-0.684c-1.121,3.858-2.704,10.849-3.301,5.196c0.409-4.004,0.551-6.011,0.582-6.051
	c-0.576-0.873-0.838-2.136-0.535-3.248c0.005-0.668,0.261-1.096,0.731-1.004c-0.631-0.58-0.572-0.551-0.952-0.829
	c-0.351,0.469-0.389,0.409-0.328,0.24c-0.294-0.215-0.238-0.269,0.146-0.17c-2.624,0.464-1.753,0.292-5.712,1.707
	c-1.601,0.949-13.529,4.324-19.796,6.011c-0.713-0.294,0.619-0.393,0.192-0.291c-3.705-1.33-9.909-1.963-17.183-1.468
	c-5.841,3.859,2.229,1.949,2.996,5.684c1.442,3.57-2.916-0.344-4.705-1.592c-2.409,0.259-7.503,1.796-11.059,3.438
	c-4.835,3.701-5.746,7.987-4.406,10.104c-0.092-0.149-0.394-0.298-1.339,0.018c-3.183,7.163-1.821,11.52-1.639,14.642
	c0.107-0.004,0.281,0.227,0.286,0.257c6.231-0.652,9.87,0.031,16.513-1.695c0.695-0.033,3.037-1.291,3.523-1.96
	c1.253,0.281,1.528,0.165,2.291-0.514c-0.137,0.736,0.4,0.561,1.342-0.144c-0.09,0.631,0.407,0.896,2.008-0.024
	c-0.365-0.063-0.307-0.168,0.022-0.277c2.784,0.883,0.828,3.191-1.312,5.521c-2.458,2.85,0.791,1.555,2.618,0.926
	c-0.15,1.132,0.868,1.898,4.95-2.067c0.783,1.483,3.16,1.555,4.314,1.05c-1.298,0.931-2.534,2.13-2.632,2.407
	c0.066,0.045-0.428-0.174-0.465,0.545c-1.403,2.176,1.316,0.882,2.679,0.297c0.131,0.763,0.736,1.997,4.423,1.463
	c-2.465,2.024-0.138,2.267,2.836,2.185c-3.368,1.043-5.092,0.919-8.262-0.863c-6.321,1.079-13.33,0.295-16.121-1.407
	c0.163-0.554,0.684-0.977,1.157-0.916c-0.164-0.233-0.426-0.638,0.13-0.221c-2.203-2.239-5.13-4.417-7.227,2.71
	c-0.072-0.376-0.448-0.657-1.566-1.012c0.239,5.139,1.03,11.999,8.073,7.38c0.284-1.182,2.151-1.219,4.377-0.279
	c8.336,3.07,12.216,8.625,6.913,15.932c0.142-0.11,0.184-0.15,0.157-0.368c-0.007,0-0.963,0.078-0.01-0.088
	c-3.71-0.419-20.001-1.719-24.238,1.259c-1.066,0.75-5.829,2.012-6.481,2.291c-0.121-0.077-0.783-0.138-1.056-0.028
	c0.136,0.058,1.223,0.785,0.984,0.977c4.532,1.184,8.903,2.744,12.757,4.287c-0.334-0.044-0.523-0.091-0.223-0.12
	c0.003-0.51,0.49-0.539,1.042-0.25c0.051-0.422,0.252-0.781,0.454-0.777c6.607,12.875,12.388,22.393,16.293,26.683
	c1.113,0.189,5.935,0.054,7.932-0.367c2.236-1.615,2.329-3.081-0.033-4.212c-0.012-0.35-0.231-1.646-0.538-3.004
	c1.563-2.332,1.991-0.94,1.642,2.87c5.364-3.712,7.29-3.994,6.331-1.781c8.44,0.299,9.15-2.325,8.701-3.326
	c0.399-0.26,0.101-0.003,0.036,0.054c1.941-0.146,2.744,0.819,3.857,3.714c0.441,0.282,0.97,0.912,1.564,1.724
	c1.852,6.477,5.666,8.909,10.187,4.499c0.411-0.367,0.512-1.222,0.978-3.464c-0.333,0.611-0.302,1.07,0.242,1.438
	c0.229,3.731,2.998,3.583,6.484,3.09c-7.137,2.373-2.489,3.777,0.663,4.586c0.512,0.631,1.298,0.988,2.138,0.979
	c1.725,0.742,10.891,6.945,12.932,8.89c3.417-0.948,5.049-2.428,5.019-2.627c0.417-0.442,1.038-1.194,1.192-1.418
	c6.798-4.129,0.533,1.646-0.81,3.042c3.59,1.407,6.839,2.861,0.639,1.844c-0.197-0.12-0.256-0.271-0.177-0.454
	c-0.104,0.104-0.177,0.005-0.258-0.116c0.123,0.054,7.822,6.399,10.739,9.711c3.334,2.407,4.521,7.375,3.178,10.335
	c-0.938,1.818-0.352,4.795,1.443,6.34c-0.36-0.151,3.035,0.029,2.467,0.25c-0.523-1.073-0.739-1.535-0.709-1.491
	c-0.467,0.296-0.212,0.055-0.02-0.118c-1.228-0.667-1.77-1.984-1.642-3.715c0.887-8.582,4.873-7.772,8.123-6.478
	c-0.164-0.036-0.16-0.146,0.054-0.325c-0.051-0.7-0.17-2.281-0.229-3.021c1.25-3.466,0.429,0.468,1.489,5.562
	c0.082,0.108,0.653-0.102,0.839,0.449c0.413,0.523,0.354-2.988,0.105-3.108c6.866,9.848,25.628,8.412,25.895,8.533
	c0.008-0.05,0.016-0.1,0.024-0.149c1.162-0.067,1.341,0.266,2.264-0.569c0.816,0.142,0.638,1.365,2.01,0.314
	c-0.171-0.184-0.165-0.307,0.017-0.369c-0.036-0.018,0.788-0.913,0.824-0.955c0.754,1.042-4.191,4.356-4.476,4.358
	c0.329-0.058-0.487,0.513-0.079,0.461c0.325-0.069,1.86-0.585,1.768-0.577c2.682-0.348,6.987-1.683,8.773-1.151
	c-0.434,1.897-0.592,0.627,1.963,1.688c0.051,0.212,0.177,0.326,0.378,0.341c0.219-0.158,1.168,1.102,1.381,1.219
	c-7.813,2.918-2.786,3.419-1.699,5.662"/>
<path id="pays-de-loire_2_" class="st0 disabled" d="M415.395,323.101c-14.944-4.521-26.137-8.474-30.211-26.543
	c-11.958-5.568-22.401-4.362-31.976,4.386c-2.513-11.955-8.635-11.884-13.409-22.012c0.008-0.006-0.453,0.523-0.46,0.509
	c-7.779,6.13-14.069,7.154-30.492,11.901c3.992,2.473-23.311-12.586-27.871-7.714c-0.049,0.053-1.606-1.568-1.79-1.64
	c-0.08,0.371,0.014,0.732-0.527,0.541c-0.046,0.167-0.104,0.226-0.175,0.176c-1.838,11.344,5.394,46.183,0.598,57.304
	c-0.713,1.653-13.96,16.597-17.927,23.268c-14.011-7.363-42.078-0.912-55.4,6.256c-13.939,7.5-31.253,20.959-37.482,27.102
	c-0.119,0.117,1.634,1.156,1.581,1.228c-0.187-0.001-0.279,0.124-0.275,0.375c-7.486-1.126-5.449,2.912-6.668,7.017
	c1.35,2.203,5.487,8.31-0.894,4.038c4.211,5.978,13.844,8.667,23.752,6.316c0.172-0.626,0.223-0.627,0.159-0.047
	c4.437-5.188,2.196,0.914,1.217,3.743c1.696,2.079,1.985,4.317,0.82,6.54c0.195,0.076,0.172,0.061-0.031-0.031
	c-0.995,2.159-2.464,2.385-3.49,1.415c-0.617,0.98-2.042,2.039-2.771,2.07c1.738,1.424,6.554,3.567,9.963,4.311
	c-0.423,0.521,1.434-1.825,0.278-0.297c7.154,3.752,9.616,8.252,5.368,12.939c-15.992,19.243,6.312,35.876,14.353,57.657
	c-0.135-0.229-0.222-0.459,0.045-0.37c2.926,1.962,5.395,3.871,8.25,6.365c0.188-0.276,0.273-0.417,0.022-0.108
	c1.887,2.129,3.615,3.042,7.457,4.06c16.984,14.885,33.667,18.027,48.665,6.882c0.32,0.628,0.803-0.181,1.001-0.325
	c0.396,0.932-1.72,4.897-2.868,5.275c11.719,3.271,20.129,2.457,32.981-5.521c-2.316-3.208-7.862-1.657-7.814-1.561
	c4.333-15.476,1.614-26.691-2.372-39.055c-3.281-10.176-13.562-23.69-12.904-25.353c-0.176,0.444-0.603-0.311-0.62-0.331
	c0.02,0.219-0.072,0.298-0.274,0.236c0.383,0.052-0.349,0.558-0.807,0.281c0.202-0.13,0.189-0.279-0.038-0.446
	c-0.347-0.03,0.928,0.191,0.436-0.152c0.144-0.061,0.197-0.15,0.158-0.268c9.297,0.972,28.214-5.687,31.909-7.122
	c9.205-2.361,15.325-5.432,25.952-4.543c0.469,0.441-2.751,3.268,0.109,5.282c20.811-12.512,15.055-38.043,30.228-57.104
	c0.246-0.309-0.228-2.762-0.148-3.382c3.764,0.94,6.978,4.094,10.957,5.096c0.064-0.163,0.2-0.231,0.409-0.206
	c0.363-0.31,0.767-0.986,1.429-0.848c1.476-1.289-5.911-6.022-1.25-7.271c19.02-0.279,22.552-13.316,31.639-28.535
	c4.585-7.679,3.381-16.491,9.345-25.016c-1.106-1.037-7.135-4.655-8.102-6.751"/>
<path id="poitou-charente" class="st0 disabled" d="M287.928,636.995c-1.357-6.541-4.07-13.038-7.63-18.28
	c-0.295,0.006-0.877-0.007-0.228-0.355c-0.733-0.205-1.019-0.527-0.475-1.066c-2.405-1.869-5.735-4.387-8.167-6.175
	c-2.43-1.827-5.077-5.27-6.048-7.65c-0.203-0.11-0.471-0.251,0.045,0.092c-0.223,0.021-0.555,0.049-0.38,0.211
	c-3.317-1.881-5.632-3.487-11.133-7.6c-0.022-0.076-0.148-0.546-0.085-0.086c-0.039-0.201-0.156-0.343-0.352-0.427
	c-2.598-1.075-3.884-1.294-0.952,0.992c-2.533-19.248,5.463-13.663,16.278-1.618c-1.371-2.122-0.509-2.063,0.887-1.315
	c1.603,1.235,0.841,0.068,0.346-0.69c-3.232-0.35-5.661-2.099-6.668-4.59c-8.408-7.454-9.636-12.318-1.215-13.627
	c0.794-1.742,0.786-5.267-0.91-7.912c-2.432-1.542,1.575-0.909,5.067-0.59c1.417,1.883,5.145,7.342,3.705-1.954
	c-4.222,0.197-6.953,1.411-9.622-3.992c9.16,1.982,1.185-3.789,2.119-6.088c0.097-0.13,0.076-0.226-0.062-0.288
	c-1.484-5.186-2.205-6.582-5.517-9.006c0.049-0.201,0.169-0.402,0.405-0.616c0.205,0.565,0.273,0.649,0.119-0.04
	c2.42-1.353,0.727-1.096-1.294-0.639c-0.19-0.154-0.276-0.157-0.065,0.211c-6.467-1.061-2.213-5.745,4.027-11.376
	c0.584-0.121,1.212-0.456,1.747-0.895c3.998-5.478,2.609-10.39,14.17-10.904c0.358,0.702,0.778-0.314,1.001-0.326
	c0.376,0.887-2.785,5.421-2.868,5.274c11.712,3.27,20.125,2.457,32.98-5.52c-2.318-3.207-7.862-1.654-7.815-1.559
	c4.333-15.465,1.621-26.689-2.354-39.033c-3.275-10.172-13.545-23.721-12.894-25.366c-0.175,0.441-0.605-0.312-0.621-0.331
	c0.019,0.217-0.072,0.295-0.273,0.236c0.383,0.053-0.346,0.56-0.807,0.281c0.202-0.129,0.19-0.278-0.037-0.445
	c-0.341-0.029,0.922,0.188,0.434-0.152c0.145-0.061,0.198-0.15,0.159-0.268c9.306,0.979,28.209-5.679,31.918-7.119
	c9.204-2.361,15.327-5.432,25.955-4.545c-4.245,1.38-1.203,4.36,0.108,5.283c6.639-6.771,5.955-1.767,12.354-12.778
	c14.931,10.359,18.977,16.363,32.414,26.697c7.587,5.835,10.287-7.958,8.562-6.45c0.322,0.289,3.497,0.271,3.85-0.006
	c8.243,10.425,37.28,52.445,37.919,57.615c0.747,6.046,2.221,5.41,5.793,7.366c-14.695,13.548-24.687,17.438-29.454,29.086
	c-4.189,10.236,8.614,15.665,6.296,23.602c-1.431,4.899-5.715,0.906-9.163,2.228c-0.871,4.852,0.386,11.409-2.899,15.837
	c-9.56,4.058-16.251,15.139-22.491,23.218c-6.911,8.948-18.327,31.626-29.184,38.367c-12.492,7.756-25.518,16.478-41.798,6.79
	c-3.187-19.265-11.223-20.082-25.197-21.692 M233.922,533.861c-10.772,6.697,9.865,5.99,14.425,6.341
	c-0.612-0.834-1.973-1.27-2.517-1.115c-7.943-4.823-10.682-5.816-14.393-3.613c-0.215-0.613-0.212-0.954-0.192-2.33
	c1.784-0.011,0.577-0.187,2.669,0.703 M251.304,563.708c-2.747-2.209-8.389-5.685-9.899-8.111c-0.141,0.009-0.201-0.043-0.181-0.154
	c-0.131,0.122-3.249-0.937-3.303-0.97c0.261,7.411,3.69,11.415,5.769,15.192c3.991,8.737,8.321,16.281,9.891,5.66
	c-1.006-3.135-2.098-10.326-1.991-11.645c-0.188,0.186-0.279,0.198-0.271,0.039 M256.09,559.769
	c1.196-2.271,1.084-2.062-0.004,0.001 M258.636,560.443C258.502,560.37,258.42,560.325,258.636,560.443 M259,564.505
	c-0.203-0.258-0.117-0.15-0.002-0.005 M259.066,564.738c0.027-0.119-0.056-0.164-0.247-0.133L259.066,564.738 M259.184,564.691
	l-0.157-0.186L259.184,564.691 M259.539,564.917c0.222-0.095,0.114-0.169-0.325-0.225L259.539,564.917"/>
<path id="limousin" class="st0 disabled" d="M523.727,522.294c-25.964-3.857-37.481,0.947-51.228,1.712
	c-6.604,0.367-5.503,0.685-15.394,5.446c-10.987-7.229-33.153-3.272-42.875,8.467c-8.929,10.782,1.945,15.035-0.627,27.272
	c-1.124,5.348,13.023,2.741-4.176,9.326c-1.82,4.22,0.409,11.374-2.9,15.834c-5.485,1.259-5.197,1.038-11.866,7.426
	c0.101,0.151,0.059,0.271-0.128,0.359c10.1,13.063,20.337,8.908,31.597,17.427c5.09,3.851,4.163,0.896,9.785,4.767
	c2.551,2.771,0.144,4.673,9.671,10.316c-0.507,1.119-0.49-0.034-0.496-0.038c-0.463,1.291-3.265,2.23-2.271,4.026
	c-0.01,0.353,3.099,0.283,5.057,2.043c-9.398,12.338-4.861,15.044-6.045,24.455c2.702,3.199,7.665,2.644,12.371,3.983
	c-0.071,0.197-0.044,0.377,0.079,0.541c4.664,6.284,23.541,19.266,35.054,19.436c2.779,0.041,12.459-1.12,15.728-2.678
	c4.168-4.802,7.636-11.073,9.324-16.563c2.009-7.356,8.616-19.271,13.724-31.638c6.892,2.062,9.36,2.646,13.501,3.506
	c-0.019-0.433,0.129-0.815,0.444-1.147c-1.713-15.457-8.365-32.996-7.568-44.47c0.049-0.712-2.492-3.202-3.043-3.922
	c14.438-5.111,17.188-18.096,13.849-34.444c-2.577-12.619-13.181-21.62-19.305-23.83
	C527.664,528.75,526.333,526.628,523.727,522.294"/>
<path id="auvergne" class="st0 disabled" d="M505.089,682.422c3.157,9.641,5.463,36.476,9.877,39.232c0.274,0.171,0.592,0.275,0.669,0.575
	c0.249-0.009,0.299,0.199,0.344,0.353c0.143-0.008,1.137-0.792,1.181-0.698c21.12,0.043,18.951-18.328,30.417-22.162
	c1.602-0.535,8.877-11.043,10.587-12.944c0.074,0.057,0.12,0.041,0.138-0.047c2.864,2.498,0.893,7.069,2.776,9.637
	c6.266,6.408,10.782,5.017,14.395,21.689c-0.039,0.117,2.114,1.703,2.083,1.612c1.896-11.717,9.489-21.162,11.502-28.705
	c2.347-1.542,11.437-4.084,19.303-8.096c11.2,16.38,6.871,12.497,17.512,10.905c11.632,10.778,17.473,13.086,28.079,5.459
	c2.566-1.846,2.66,1.857,4.591-1.235c5.107-2.73,24.953-16.38,29.146-23.102c-0.139,0.223-1.157-11.146-1.046-10.011
	c0.17-0.124,0.271-0.285,0.306-0.484c0.492-0.234-0.012-0.629-0.039-1.026c3.243-1.404,5.333,3.67,4.993,3.817
	c0.05-0.107,0.134-0.146,0.253-0.113c0.078-1.859-0.461-0.744,1.397-1.066c-2.305-17.355-8.723-25.352-16.178-27.61
	c-8.452,1.22-14.903,0.411-18.585,4.972c-7.473-0.643-2.796-2.059-7.948-1.2c-0.08-0.075-0.141-0.07-0.182,0.015
	c-0.062-0.123-0.066-0.082-0.012,0.123c-0.09-0.106-0.165-0.05-0.224,0.17c-0.214-0.071-0.317,0.053-0.312,0.373
	c-0.14,0.25-0.512-1.083-0.684-1.079c12.257-19.108-10.529-36.165-14.104-54.351c-0.688-3.505-2.271-8.547-2.029-15.111
	c4.071-4.921,22.765-42.167,21.634-49.062c-2.134-13.005-22.641-16.227-27.869-37.676c-0.168,0.125-0.305,0.037-0.41-0.265
	c-1.217,0.845-2.303,0.088-2.691-0.896c-0.032,0.212-0.948,1.537-1.035,1.382c0.197,4.387-2.961,4.883-4.453,7.583
	c-9.027,2.084-20.713-2.112-37.056-12.435c-31.304,5.111-22.473,15.068-32.698,25.762c-10.259,10.729-27.814,5.775-22.715,23.154
	c9.003,3.247,16.763,13.771,18.354,27.851c1.89,16.72,1.837,25.241-12.9,30.457c10.864,14.212,13.13,25.728,8.611,41.987
	c-1.615,5.812,1.673,3.408,2.008,6.412c-0.316,0.332-0.464,0.715-0.445,1.148c-4.151-0.854-6.589-1.434-13.487-3.49
	c-5.112,12.372-11.716,24.286-13.721,31.635c-1.689,5.487-5.165,11.771-9.335,16.575"/>
<path id="rhone-alpes" class="st0 disabled" d="M648.26,538.168c-6.509,10.977-7.584,25.211-14.979,34.147
	c-0.645,17.36,9.739,36.031,21.446,56.929c-1.896-3.383-5.276,12.488-5.308,12.537c0.172-0.004,0.545,1.329,0.684,1.08
	c-0.004-0.318,0.101-0.443,0.313-0.373c0.057-0.217,0.131-0.273,0.223-0.17c-0.055-0.204-0.051-0.245,0.012-0.123
	c0.042-0.084,0.103-0.089,0.182-0.015c5.152-0.858,0.479,0.558,7.949,1.199c3.683-4.561,10.136-3.752,18.59-4.973
	c7.458,2.252,13.876,10.248,16.182,27.609c-1.859,0.321-1.321-0.795-1.399,1.064c-0.119-0.032-0.203,0.006-0.253,0.113
	c0.346-0.151-1.741-5.223-4.986-3.815c0.027,0.397,0.529,0.795,0.038,1.028c-0.034,0.198-0.137,0.359-0.306,0.483
	c1.19,11.99-7.173,18.88-23.813,29.194c-2.982,1.849-3.942,3.736-4.272,3.913c-10.925,3.634-12.996,16.104-3.246,32.001
	c0.103,0.167,0.424,1.413,0.174,1.035c2.356,12.743,9.115,11.137,6.156,23.272c0.407,0.058,0.8,0.485,0.767,0.715
	c0.521,0.106,0.092-0.009,0.047,0.303c0.167,0.012,0.304,0.085,0.41,0.219c8.04,1.347,6.178,1.93,16.559,5.639
	c5.108-5.613,3.25-5.618,10.449-9.349c3.901,3.723-2.098,6.184,3.556,6.991c8.778-5.816,4.61-6.487,17.196,1.118
	c9.715-0.531,2.092-8.014,13.242,3.954c-0.124,0.075,1.367,0.768,1.004,0.39c8.532-5.586,19.049-5.457,26.979-10.282
	c0.032,0.117,0.262,0.682,0.446,0.578c4.254,15.818,28.34,20.028,40.901,16.906c1.524-13.547-9.416-23.195-21.727-30.301
	c9.94-2.357,1.73,0.073,2.89-8.386c4.519-1.245,12.63-0.175,16.413-0.78c-2.107-14.482,2.479-19.297,11.863-29.085
	c11.095-6.356,21.714-11.4,39.676-11.519c0.345-0.35,0.791-0.522,1.337-0.518c-20.074-32.818-2.391-22.142,20.207-29.915
	c21.719-7.472,42.634-9.308,38.815-36.505c-0.702-4.999-15.94-18.278-16.87-23.946c-0.175-1.065,1.099-35.273,3.472-27.291
	c-3.332-11.211,0.97-11.201-9.625-16.105c-0.089-0.219-0.92-0.524-1.119-0.608c0.033-0.188-0.064-0.298-0.294-0.328
	c-0.742-2.285-3.416-27.22-4.608-28.155c-26.819-21.036-33.986,3.909-41.665,7.582c0.851-0.406,0.603-1.516,1.876-0.224
	c-0.433,0.379-0.431,0.606,0.004,0.684c-0.083,0.236-0.051,0.462,0.095,0.676c-10.366,8.739-15.27,12.37-26.699,13.896
	c18.964-17.846,13.503-20.932-0.807-22.278c-9.883-0.93-10.346,9.087-24.228-0.896c-14.955,12.549-11.435,4.584-18.227,4.424
	c-4.602-8.176-6.2-9.958-7.665-14.902c-9.614-6.039-20.227-7.226-28.59-7.338c-2.715,10.739-10.407,25.732-11.45,38.374
	c-0.286-0.1-0.537-0.037-0.753,0.188c-0.126-0.479-0.755,0.023-0.794,0.279c-0.087-0.029-0.123,0.001-0.109,0.09
	c-0.024-0.15-2.22-0.636-2.227-0.614c0.071-7.114-2.604-7.375-3.099-13.754c-0.321-0.022-0.972,0.281-1.067-0.419
	c-14.936-0.381-24.137,12.517-32.673,13.808c-4.082,0.617-15.936,2.181-20.889,0.938c-4.835-1.804-6.974-4.875-6.38-10.344"/>
<path id="languedoc-roussillon" class="st0 disabled" d="M479.196,949.115c13.355-2.419,16.857-7.74,31.283-9.64
	c-0.332-0.143,0.763-2.024,0.854-2.053c-21.264-5.753-27.036-16.618-19.207-30.399c1.313-2.069,4,0.895,5.097,0.04
	c0.007-0.131,0.073-0.222,0.2-0.271c-0.011-0.192,0.103-0.457,0.396-0.666c-0.298-0.228-0.423-0.168-0.375,0.178
	c-1.56-21.83-22.748-15.344-24.265-32.188c-1.005-11.167,4.722-7.177,9.535-10.282c1.16-4.642-0.786-7.628,2.7-10.523
	c0.152,0.037,0.202-0.001,0.15-0.112c0.738,0.275,0.596-0.429,0.926-0.702c1.546,0.834,4.272,5.65,2.961,5.271
	c0.29,0.01,0.536,0.138,0.739,0.385c0.064-0.087,0.131-0.095,0.199-0.023c9.366-0.115,11.637-2.21,24.929,1.505
	c25.285-8.461,27.722-0.714,33.624-25.59c0.851-3.586,6.889-6.083,6.65-2.933c8.499,0.7,19.185-2.775,28.272-5.622
	c0.681-5.366,0.523-10.111,0.337-15.857c16.613-0.028,22.484-5.865,31.006-20.797c-4.792-5.244-10.484-6.079-15.239-7.903
	c3.884-4.922,6.674-6.464,8-12.055c-2.502,0.061-10.552,2.326-12.733,1.321c-2.053-5.702-0.234-6.731-6.515-7.842
	c3.986-13.202,0.402-27.479-11.158-42.671c1.808-11.162,8.23-22.182,11.501-28.706c2.34-1.539,11.437-4.089,19.301-8.101
	c11.19,16.366,6.86,12.497,17.512,10.896c15.344,4.242,17.292,12.26,23.868,27.498c1.883,4.363,4.422,5.421,5.749,9.755
	c2.354,12.741,9.109,11.137,6.155,23.273c0.408,0.058,0.798,0.483,0.765,0.715c0.522,0.107,0.092-0.01,0.047,0.301
	c0.167,0.013,0.304,0.087,0.41,0.222c8.041,1.345,6.172,1.924,16.554,5.634c5.11-5.613,3.279-5.585,10.451-9.346
	c-3.512,0.347,2.635,6.86,3.552,6.992c27.965-19.678,24.449,39.822,18.744,53.021c-2.132,4.932-0.929,8.798-1.945,13.064
	c-18.139,7.756-16.729,12.374-31.643,25.573c-8.834-5.812-7.77-6.167-12.177-9.996c-2.419-0.334-6.539,0.104-7.655,0.874
	c-0.808,0.312-3.96,1.959-4.598,2.405c-6.232,5.553-13.314,11.006-17.035,13.182c-0.123,0.552-0.414,0.837-1.233,1.399
	c-1.37,0.065-2.776,0.264-3.426,0.47c-2.826,1.821-6.102,5.165-8.018,8.103c-0.528,0.034-0.275,0.042,0.07,0.046
	c-0.887,0.548-2.065,1.906-2.489,2.923c-0.141-0.014-0.079,0.006,0.045,0.035c-0.781,1.077-1.828,2.286-2.079,2.505
	c-1.499-0.688-3.376-1.141-4.948-1.191c0.018-0.265,0.029-0.566-0.098-0.081c-0.074-0.651-0.562-1.03-1.124-0.965
	c-0.534-0.093-1.046-0.032-1.709,0.197l-0.037-0.112l0.009,0.12c-3.011,0.675-6.45,2.529-8.753,4.697
	c-0.293-0.211-0.035,0.009,0.048,0.082c-1.546,0.297-3.43,1.91-4.699,3.86c-0.475,0.302-4.087,3.479-4.899,4.44
	c0.046,0.192,0.024,0.06,0.042,0.233c-0.013-0.092,0.051-0.082,0.215,0.034c-0.809,0.47-2.374,2.258-2.698,3.3
	c-0.939,0.714-1.713,2.057-1.603,3.038c-0.333-0.028-0.756-0.061,0.045,0.071c-0.969,0.034-1.495,0.71-1.506,1.75
	c-0.119-0.056-0.14-0.054-0.031,0.021l-0.152-0.022l0.23,0.041c-1.964,2.535-3.424,6.109-3.703,8.96
	c-0.266-0.054-0.318-0.025,0.07,0.171c-1.936,5.383-2.316,10.193-1.375,15.412c-0.401,0.234-0.409,0.253,0.093-0.007
	c-1.069,2.405-1.502,6.418-1.028,8.432c-0.253,0.041-0.215,0.036,0.055-0.006c-0.269,2.366-0.321,6.805-0.117,8.173
	c-0.087,1.735-0.219,6.048-0.238,7.433c-0.548,6.31,1.053,12.586,3.907,14.584c1.569,0.621,2.182,0.959,2.667,0.369
	c1.221,1.45,1.495,2.76,1.289,4.737c0.065,0.015,0.071,0.034,0.121-0.075c0.003,0.005,0.174,0.268-0.007-0.06
	c1.487-2.116-25.65,10.511-39.779,10.779c0.409-0.008,2.307,3.924,1.928,4.705c-0.149-0.008-0.254,0.049-0.314,0.172
	c-23.544-7.798-49.805-2.256-62.597-12.461C476.698,953.207,479.957,961.184,479.196,949.115"/>
<path id="Provence-Alpes-Cotes-Azur" class="st0 Provence-Alpes-Cotes-Azur" d="M956.783,770.973c-14.8-9.2-32.206-8.371-47.122-16.208c-7.442-3.91-12.046-10.982-15.111-18.601
	c-6.167-15.331-6.689-21.493,7.484-29.059c-8.091-10.051-18.555-17.693-27.121-27.275c-11.424-12.778-9.436-22.406-29.308-14.135
	c-8.945,3.723,5.828,14.951-2.184,23.227c0.194-0.2,0.385,2.229,0.257,2.021c-14.513-0.104-28.524,4.875-41.017,12.028
	c-9.382,9.782-13.969,14.602-11.868,29.08c-3.795,0.607-11.891-0.462-16.42,0.783c-1.162,8.459,7.053,6.031-2.891,8.391
	c12.307,7.103,23.251,16.751,21.729,30.302c-14.176,3.523-36.922-1.409-41.345-17.491c-7.925,4.823-18.452,4.698-26.977,10.277
	c-3.485-3.895-9.884-7.608-14.163-10.89c14.081,23.137,5.13,47.844-0.505,71.526c-18.148,7.775-16.684,12.358-31.659,25.582
	c0.445-0.104,0.476-0.07,0.092,0.101c7.878-0.127,15.35,0.451,22.452,3.252c8.456,3.334,20.488,16.23,31.063,7.367
	c2.206-1.85-5.834-3.987-1.384-3.839c-3.618,1.242-1.754-5.898-1.552-6.596c1.946,2.954,9.234,8.149,12.097,5.167
	c-6.938,7.229,15.851,7.439,17.136,7.362c11.234-3.636,14.257,3.131,11.233,12.287c1.394,0.185,22.682,2.637,21.941,3.693
	c10.879-1.127,14.374,16.215,26.056,9.651c-2.938,1.658-2.575-0.484-1.862-2.188c-0.74,0.018-2.928,0.337-1.192-1.681
	c0.419,1.215,3.277-0.167,3.215-0.162c2.291,1.271,4.818,2.312,7.218,3.367c2.362,1.568,8.947,6.53,12.774,5.407
	c-3.804-1.518-1.199-8.002,1.646-8.931c3.628-0.064,17.273,2.468,13.415-1.571c-1.536-8.752,35.378-0.976,21.154-17.744
	c0.141,1.272-0.977,1.245-3.352-0.084c-1.488-2.256,19.016-21,20.517-18.538c-3.145,0.148,23.428-20.785,22.006-13.906
	c2.152-10.416,3.88-15.287,15.069-16.018C943.253,815.955,947.238,781.786,956.783,770.973 M891.119,846.882
	C891.163,846.778,891.141,846.828,891.119,846.882"/>
<path id="midi-pyrenees" class="st0 disabled" d="M307.927,913.575c14.565,18.812,37.182,18.482,54.625,16.031
	c4.824-0.678,18.506,4.199,25.842,4.485c-6.338-34.694,51.38-2.694,62.268,11.299c0.158-0.022,1.257-0.068,1.435,0.144
	c18.127-2.458,36.075,3.536,58.359-6.045c-0.32-0.138,0.727-1.98,0.854-2.053c-21.261-5.754-27.035-16.617-19.205-30.404
	c1.313-2.068,4,0.895,5.096,0.041c0.007-0.131,0.074-0.221,0.201-0.271c-0.011-0.193,0.101-0.456,0.395-0.666
	c-0.297-0.229-0.422-0.171-0.375,0.176c-1.558-21.824-22.745-15.359-24.263-32.195c-1.007-11.167,4.719-7.178,9.532-10.281
	c1.158-4.641-0.788-7.628,2.697-10.524c0.151,0.038,0.202,0.001,0.151-0.11c0.737,0.275,0.595-0.43,0.925-0.702
	c1.544,0.832,4.276,5.652,2.964,5.271c0.29,0.009,0.537,0.138,0.74,0.385c0.063-0.088,0.13-0.096,0.199-0.024
	c9.366-0.114,11.641-2.208,24.93,1.505c25.286-8.459,27.719-0.714,33.622-25.592c0.851-3.585,6.889-6.084,6.65-2.932
	c8.501,0.701,19.188-2.778,28.273-5.622c0.683-5.367,0.522-10.113,0.337-15.858c16.614-0.026,22.484-5.862,31.005-20.795
	c-4.789-5.244-10.481-6.077-15.234-7.9c3.884-4.923,6.673-6.458,7.999-12.056c-2.502,0.061-10.554,2.324-12.734,1.319
	c-2.055-5.7-0.235-6.729-6.519-7.839c4.501-14.915-10.435-53.612-19.997-62.566c-5.405-5.061-0.49-0.947-7.642-3.407
	c-1.887-2.572,0.084-7.145-2.778-9.641c-0.018,0.086-0.063,0.102-0.137,0.047c-5.751,6.389-13.597,25.254-18.791,27.724
	c-5.403,2.569-17.363,7.378-22.22,7.37c-0.043-0.094-1.039,0.692-1.181,0.7c-0.044-0.152-0.093-0.363-0.343-0.354
	c-3.104-12.194-5.427-23.077-10.176-38.961c-0.111-0.372-0.243-0.533-0.348-0.854c-19.61,9.344-20.969-2.329-39.217-7.021
	c-3.397-0.873-5.649,2.044-9.132,1.517c-3.121,20.704-15.414,20.534-24.666,38.182c-5.212,9.941-4.993,9.253-13.458,13.754
	c3.384,8.037,3.029,13.541,5.949,20c-8.925-0.635-7.564-1.701-11.324-2.404c0.04,0.476-1.622,0.317-1.845,0.268
	c3.198,12.513-0.755,16.968-0.902,27.076c-12.944,7.383-23.161,4.503-40.213,11.64c-14.208,5.946-21.407-4.851-26.511,11.579
	c-0.402-0.216,0.001,0.77,0.023,0.678c-0.494-0.293-1.057,0.332-1.173,0.74c-0.508-0.351-1.506-1.306-1.896-0.4
	c-2.764-1.781-4.585-7.432-2.344-6.713c-0.862,0.016-2.559-2.355-2.998-2.893c-7.468,2.522-7.349,6.864-15.798,7.489
	c0.214,0.54-0.565,1.198-0.696,1.227c0.051,0.185-0.036,0.262-0.262,0.229c0.144,0.272,0.8,0.166,0.104,0.42
	c4.732,9.648-4.042,22.021-1.98,31.284c1.939,8.717,13.805,3.94,13.511,20.274c2.236,0.684,0.388,1.925,0.164,2.719
	c0.056,0.012,1.769-0.322,1.671,0.167c-0.079-0.047,2.54-3.58,2.576-3.719c0.035,0.184,1.215-0.093,1.215-0.083
	c1.05,25.26-17.615,29.274-25.703,49.328C308.033,903.083,308.979,907.691,307.927,913.575"/>
<path id="aquitaine" class="st0 disabled" d="M307.94,913.573c-7.043,4.528-14.69,5.451-21.267,6.673
	c-8.272-18.614-32.808-26.275-51.033-32.585c-5.673-1.532-9.96-1.394-4.288-7.726c0.082-0.057-0.729-0.035-0.699-0.075
	c-0.141,0.104-1.269,0.251-1.249,0.214c-0.279,0.125-0.549,0.135-0.808,0.031c-0.129,0.111-1.402,0.349-1.435,0.231
	c-0.26,0.286-0.573,0.449-0.941,0.491c-1.617,1.538-1.728,6.393-2.262,8.79c0.729-25.71-13.764-28.882-33.312-38.157
	c2.219-6.075,4.198,0.476,9.392-4.36c-0.43,0.15-0.595,0.382-0.398,0.657c0.164,0.209,0.753,0.432,1.046,0.354
	c0.243-0.021,0.673-0.289,0.568-0.523c1.912-1.322,6.916-6.878,8.533-9.481c1.13-0.771,2.319-2.501,3.038-4.53
	c0.489,0.171,0.521,0.037,0.268-0.261c0.602-0.276,0.215-0.377-0.514-0.401c9.309-18.231,15.307-39.937,20.199-60.939
	c3.797-26.651,7.5-65.364,23.257-60.559c0.073-0.599,0.542-0.504,1.176-0.141c-0.451-3.896,2.404-7.579-7.489-14.598
	c-1.78,3.926-5.009,11.1-8.009,16.575c4.097-30.629,5.061-83.832,20.585-104.24c-0.125,1.169-0.066,1.632,0.263,1.338
	c1.423,3.12,14.213,23.435,22.611,37.35c-0.204-0.005-0.242,0.137-0.114,0.427c4.844-6.932,0.046-3.091,2.852-11.097
	c6.171,0.71,7.406,3.139,10.247-1.397c8.2,10.181,10.158,6.4,14.957,23.082c18.975,11.286,33.618-1.268,47.272-13.19
	c9.509-8.303,14.961-34.128,25.999-39.535c1.789-0.877,4.642-1.902,8.198-7.896c10.102,13.053,20.325,8.914,31.589,17.44
	c5.09,3.854,4.163,0.892,9.785,4.766c2.551,2.769,0.129,4.678,9.674,10.316c-0.503,1.112-0.49-0.036-0.495-0.039
	c-0.464,1.294-3.267,2.227-2.27,4.025c-0.01,0.355,3.098,0.283,5.058,2.043c-9.402,12.336-4.863,15.042-6.05,24.455
	c4.706,2.054,6.361,2.271,12.373,3.983c-0.072,0.197-0.046,0.377,0.078,0.541c4.329,20.292-4.437,28.649-12.436,44.597
	c-3.624,7.225-17.964,15.812-23.224,18.605c3.385,8.042,3.029,13.544,5.946,20.001c-8.9-0.63-7.606-1.706-11.338-2.399
	c0.04,0.472-1.623,0.316-1.846,0.268c3.2,12.519-0.761,16.97-0.931,27.086c-12.933,7.395-23.144,4.509-40.198,11.646
	c-14.212,5.947-21.412-4.838-26.516,11.567c-0.401-0.216,0.001,0.771,0.023,0.679c-0.494-0.293-1.057,0.333-1.173,0.74
	c-0.511-0.352-1.506-1.305-1.896-0.399c-2.769-1.784-4.577-7.433-2.344-6.713c-0.863,0.016-2.559-2.356-2.998-2.894
	c-7.474,2.529-7.35,6.86-15.799,7.487c0.214,0.54-0.564,1.195-0.694,1.224c0.051,0.186-0.037,0.263-0.263,0.232
	c0.144,0.273,0.796,0.166,0.104,0.419c4.708,9.638-4.06,22.011-1.998,31.282c1.932,8.69,13.841,4.049,13.615,20.54
	c2.278,0.634,0.301,1.598,0.06,2.453c0.056,0.012,1.768-0.319,1.67,0.168c-0.078-0.046,2.541-3.583,2.577-3.721
	c0.035,0.186,1.214-0.091,1.214-0.083c1.147,25.273-17.635,29.307-25.703,49.347c-2.15,5.341-1.196,9.938-2.245,15.847"/>
</svg>
